<svg xmlns="http://www.w3.org/2000/svg" viewBox="0 0 308 308"><defs><style>.cls-1,.cls-7{fill:#fff;}.cls-2,.cls-3,.cls-6{fill:#6c63ff;}.cls-3,.cls-5{opacity:0.1;}.cls-3,.cls-4,.cls-5,.cls-6,.cls-7{isolation:isolate;}.cls-4{fill:#96b7fe;opacity:0.9;}.cls-6{opacity:0.3;}.cls-7{opacity:0.2;}.cls-8,.cls-9{fill:none;}.cls-9{stroke:#707070;}</style></defs><g id="Layer_2" data-name="Layer 2"><g id="Layer_1-2" data-name="Layer 1"><g id="Group_8" data-name="Group 8"><g id="Group_5" data-name="Group 5"><path id="Path_139" data-name="Path 139" class="cls-1" d="M0,154V308H154A154,154,0,0,1,0,154Z"/><path id="Path_140" data-name="Path 140" class="cls-1" d="M154,0H0V154A154,154,0,0,1,154,0Z"/><path id="Path_141" data-name="Path 141" class="cls-1" d="M154,0A154,154,0,0,1,308,154V0Z"/><path id="Path_142" data-name="Path 142" class="cls-1" d="M154,308H308V154A154,154,0,0,1,154,308Z"/></g><g id="Group_4" data-name="Group 4"><path id="Path_123" data-name="Path 123" class="cls-2" d="M19.47,269.72s-13.94-.84-12.3,8.93a2.38,2.38,0,0,0,1.24,2.51s0-.73,1.43-.48a5.89,5.89,0,0,0,1.51.07,3.12,3.12,0,0,0,1.86-.76h0s3.91-1.62,5.44-8c0,0,1.13-1.4,1.08-1.76l-2.35,1a4.21,4.21,0,0,1,.17,3.1s-.08-3-.53-3c-.09,0-1.22.59-1.22.59s1.38,3,.33,5.1c0,0,.4-3.64-.77-4.89l-1.65,1s1.62,3.05.52,5.54c0,0,.28-3.82-.86-5.31l-1.5,1.17s1.51,3,.59,5.08c0,0-.12-4.45-.92-4.79A8.76,8.76,0,0,0,10,276.45s1,2.18.4,3.34c0,0-.4-3-.72-3a9.56,9.56,0,0,0-1.45,3.3,7.14,7.14,0,0,1,1.13-3.5,3.89,3.89,0,0,0-2,1s.2-1.39,2.32-1.51a9.42,9.42,0,0,1,1.37-1.58,8.87,8.87,0,0,0-3.39.39s1.13-1.32,3.78-.71L13,273a12.17,12.17,0,0,0-3.95,0s1.35-1.16,4.35-.32l1.62-1a15.11,15.11,0,0,0-3.79-.33s1.49-.8,4.26.07l1.15-.52s-1.74-.33-2.24-.4-.54-.19-.54-.19a6,6,0,0,1,3.26.36A14.71,14.71,0,0,0,19.47,269.72Z"/><ellipse id="Ellipse_14" data-name="Ellipse 14" class="cls-3" cx="9.87" cy="282.01" rx="9.87" ry="1.67"/><path id="Path_124" data-name="Path 124" class="cls-2" d="M295.61,216.07s-18-1.22-15.87,12.92a3.62,3.62,0,0,0,1.6,3.64s0-1,1.85-.7a7.49,7.49,0,0,0,1.95.1,3.83,3.83,0,0,0,2.4-1.1h0s5.06-2.34,7-11.61c0,0,1.45-2,1.4-2.54l-3,1.45a6.82,6.82,0,0,1,.22,4.5s-.1-4.41-.68-4.3c-.12,0-1.59.84-1.59.84s1.79,4.23.45,7.38c0,0,.51-5.26-1-7.07L288.2,221s2.1,4.42.68,8c0,0,.37-5.54-1.12-7.69l-1.94,1.7s2,4.35.75,7.35c0,0-.16-6.45-1.18-6.93a12.61,12.61,0,0,0-2,2.36s1.34,3.16.51,4.84c0,0-.51-4.3-.93-4.31a14.92,14.92,0,0,0-1.86,4.78A11.21,11.21,0,0,1,282.6,226a4.93,4.93,0,0,0-2.59,1.51s.27-2,3-2.19a12.73,12.73,0,0,1,1.77-2.29,9.91,9.91,0,0,0-4.38.57s1.46-1.9,4.88-1l1.91-1.75s-3.59-.55-5.11.06c0,0,1.76-1.69,5.63-.46l2.08-1.4a16.72,16.72,0,0,0-4.88-.46s1.92-1.17,5.49.09l1.51-.75s-2.26-.49-2.89-.57-.7-.28-.7-.28a7.12,7.12,0,0,1,4.22.52S295.66,216.29,295.61,216.07Z"/><ellipse id="Ellipse_15" data-name="Ellipse 15" class="cls-3" cx="283.21" cy="233.85" rx="12.75" ry="2.41"/><path id="Path_125" data-name="Path 125" class="cls-2" d="M258.57,254.56s-21.74-1.46-19.14,15.62a4.33,4.33,0,0,0,1.93,4.39s0-1.27,2.27-.84a8.9,8.9,0,0,0,2.36.13,4.72,4.72,0,0,0,2.89-1.34h0s6.11-2.83,8.49-14c0,0,1.76-2.45,1.69-3.07l-3.67,1.76s1.25,3,.27,5.42c0,0-.12-5.32-.83-5.2-.14,0-1.91,1-1.91,1s2.16,5.17.53,8.92c0,0,.62-6.37-1.2-8.54l-2.58,1.69s2.52,5.34.81,9.69c0,0,.44-6.68-1.36-9.31l-2.33,2s2.36,5.27.92,8.87c0,0-.19-7.77-1.43-8.35a14.61,14.61,0,0,0-2.36,2.85s1.62,3.82.62,5.83c0,0-.62-5.18-1.13-5.2,0,0-2,3.43-2.26,5.78a13.41,13.41,0,0,1,1.76-6.11,5.93,5.93,0,0,0-3.13,1.81s.31-2.42,3.62-2.63a15.74,15.74,0,0,1,2.14-2.77s-3.29-.3-5.29.68c0,0,1.76-2.28,5.9-1.24l2.31-2.12s-4.34-.67-6.17.07c0,0,2.11-2,6.8-.55l2.51-1.69a20.16,20.16,0,0,0-5.89-.57s2.32-1.41,6.63.12l1.8-.91s-2.71-.6-3.5-.69-.84-.34-.84-.34a8.49,8.49,0,0,1,5.09.63S258.63,254.83,258.57,254.56Z"/><ellipse id="Ellipse_16" data-name="Ellipse 16" class="cls-3" cx="243.59" cy="276.04" rx="15.39" ry="2.91"/><ellipse id="Ellipse_17" data-name="Ellipse 17" class="cls-3" cx="169.29" cy="277.26" rx="34.22" ry="3.43"/><ellipse id="Ellipse_18" data-name="Ellipse 18" class="cls-3" cx="65.63" cy="275.68" rx="25.97" ry="1.6"/><path id="Path_126" data-name="Path 126" class="cls-3" d="M111.74,35.3c9.63-8.58,24.76-10.34,38.52-9.65,43.23,2.14,82.26,23,116,46.63C278.5,80.82,290.53,90,298.46,101.8c16.16,24,11.36,57.15-11.1,76.89-7.64,6.71-16.9,11.87-26.41,16.42-16.91,8.12-35.15,14.63-54.33,16.49-13.68,1.32-27.54.25-41.14-1.6-38-5.15-75.3-16.55-106.56-36-13.72-8.58-26.65-19.2-32.3-33s-2-31.37,12-39.56C44.38,98,51.31,96.46,58.08,95c10-2.11,20.12-4.2,29.13-8.5,9.3-4.44,20.31-13,18.47-22.85C103.7,53.13,102.12,43.87,111.74,35.3Z"/><path id="Path_127" data-name="Path 127" class="cls-4" d="M191.57,153.21v-63h8.57V71.44H138.7v18.8h8.57v63a62.44,62.44,0,1,0,44.3,0Z"/><rect id="Rectangle_32" data-name="Rectangle 32" class="cls-5" x="147.26" y="90.04" width="44.31" height="0.85"/><path id="Path_128" data-name="Path 128" class="cls-2" d="M134.49,209.91s37.6-.66,56.4-10.07,29.54-1,28.53,4.7-6.38,16.78-27.86,18.14S134.49,209.91,134.49,209.91Z"/><path id="Path_129" data-name="Path 129" class="cls-5" d="M134.49,209.91s37.6-.66,56.4-10.07,29.54-1,28.53,4.7-6.38,16.78-27.86,18.14S134.49,209.91,134.49,209.91Z"/><path id="Path_130" data-name="Path 130" class="cls-2" d="M118.39,203.87s-4,55.72,48.67,56.72,52.36-56.06,52.36-56.06S200,225.67,154,208.22C154,208.23,130.14,201.86,118.39,203.87Z"/><path id="Path_131" data-name="Path 131" class="cls-5" d="M219.25,204.73c-1.05,12.84-7.87,53-52.17,52.17-43.42-.82-48.34-38.78-48.72-52.14-.24,7.17,0,54.9,48.71,55.83,52.7,1,52.36-56.06,52.36-56.06A2.1,2.1,0,0,1,219.25,204.73Z"/><circle id="Ellipse_19" data-name="Ellipse 19" class="cls-6" cx="167.38" cy="179.83" r="6.84"/><circle id="Ellipse_20" data-name="Ellipse 20" class="cls-6" cx="171.29" cy="152.48" r="4.23"/><circle id="Ellipse_21" data-name="Ellipse 21" class="cls-6" cx="161.84" cy="128.06" r="4.23"/><path id="Path_132" data-name="Path 132" class="cls-7" d="M125.59,185.1c-.36,2.88-.29,6.49,2.29,7.84-2.16-1.13,6.69-13.92,5.44-16.53C130.63,170.83,125.92,182.42,125.59,185.1Z"/><circle id="Ellipse_22" data-name="Ellipse 22" class="cls-6" cx="158.42" cy="52.04" r="6.84"/><circle id="Ellipse_23" data-name="Ellipse 23" class="cls-6" cx="178.93" cy="40.32" r="5.08"/><circle id="Ellipse_24" data-name="Ellipse 24" class="cls-6" cx="164.28" cy="26.64" r="2.64"/><path id="Path_133" data-name="Path 133" class="cls-4" d="M93.6,110.8H38.35v16.38h8.42V255a19.21,19.21,0,0,0,38.42.5V127.18H93.6Z"/><path id="Path_134" data-name="Path 134" class="cls-2" d="M59.57,156.15s13.67-4.89,17.48-1.41c0,0-5.54,8.14-10.64,7.81S59.57,156.15,59.57,156.15Z"/><path id="Path_135" data-name="Path 135" class="cls-5" d="M59.57,156.15s13.67-4.89,17.48-1.41c0,0-5.54,8.14-10.64,7.81S59.57,156.15,59.57,156.15Z"/><path id="Path_136" data-name="Path 136" class="cls-2" d="M77,154.75v92.79a11.72,11.72,0,0,1-11.72,11.72h0a11.73,11.73,0,0,1-11.73-11.72h0V154.75a15.16,15.16,0,0,1,11,1.73C69.87,159.75,77,154.75,77,154.75Z"/><rect id="Rectangle_33" data-name="Rectangle 33" class="cls-5" x="46.76" y="127.08" width="38.42" height="0.75"/><path id="Path_137" data-name="Path 137" class="cls-5" d="M65.32,253.62h0A11.73,11.73,0,0,1,53.59,241.9h0v5.86a11.72,11.72,0,0,0,11.72,11.72h0A11.73,11.73,0,0,0,77,247.76h0V241.9a11.72,11.72,0,0,1-11.72,11.72Z"/><circle id="Ellipse_25" data-name="Ellipse 25" class="cls-6" cx="65.32" cy="143.25" r="2.39"/><circle id="Ellipse_26" data-name="Ellipse 26" class="cls-6" cx="73.14" cy="134.78" r="1.52"/><circle id="Ellipse_27" data-name="Ellipse 27" class="cls-6" cx="62.5" cy="131.75" r="1.52"/><path id="Path_138" data-name="Path 138" class="cls-7" d="M49.74,173.71c-.37,2.88-.29,6.49,2.28,7.83-2.16-1.12,6.7-13.91,5.44-16.53C54.77,159.45,50.07,171,49.74,173.71Z"/><circle id="Ellipse_28" data-name="Ellipse 28" class="cls-6" cx="70.28" cy="94.74" r="5.8"/><circle id="Ellipse_29" data-name="Ellipse 29" class="cls-6" cx="52.87" cy="84.79" r="4.31"/><circle id="Ellipse_30" data-name="Ellipse 30" class="cls-6" cx="65.3" cy="73.19" r="2.24"/></g><g id="Ellipse_31" data-name="Ellipse 31"><circle class="cls-8" cx="154" cy="154" r="154"/><circle class="cls-9" cx="154" cy="154" r="153.5"/></g></g></g></g></svg>