<svg xmlns="http://www.w3.org/2000/svg" xmlns:xlink="http://www.w3.org/1999/xlink" viewBox="0 0 309.64 309"><defs><style>.cls-1{fill:#fff;}.cls-2{fill:none;stroke:#707070;}.cls-3{fill:url(#linear-gradient);}.cls-4{fill:url(#linear-gradient-2);}.cls-5{fill:#e53935;}.cls-6{opacity:0.2;isolation:isolate;}.cls-7{fill:#6c63ff;}</style><linearGradient id="linear-gradient" x1="-39.97" y1="322.61" x2="-39.97" y2="321.61" gradientTransform="matrix(255.35, 0, 0, -243.33, 10365.61, 78626.52)" gradientUnits="userSpaceOnUse"><stop offset="0" stop-color="gray" stop-opacity="0.25"/><stop offset="0.54" stop-color="gray" stop-opacity="0.12"/><stop offset="1" stop-color="gray" stop-opacity="0.1"/></linearGradient><linearGradient id="linear-gradient-2" x1="-40.93" y1="321.18" x2="-40.93" y2="320.18" gradientTransform="matrix(128.01, 0, 0, -122.79, 5485.59, 39598.15)" xlink:href="#linear-gradient"/></defs><g id="Layer_2" data-name="Layer 2"><g id="Layer_1-2" data-name="Layer 1"><g id="Group_10" data-name="Group 10"><g id="Group_9" data-name="Group 9"><path id="Path_176" data-name="Path 176" class="cls-1" d="M.5,154.5v154h154A154,154,0,0,1,.5,154.5Z"/><path id="Path_177" data-name="Path 177" class="cls-1" d="M154.5.5H.5v154A154,154,0,0,1,154.5.5Z"/><path id="Path_178" data-name="Path 178" class="cls-1" d="M154.5.5a154,154,0,0,1,154,154V.5Z"/><path id="Path_179" data-name="Path 179" class="cls-1" d="M154.5,308.5h154v-154A154,154,0,0,1,154.5,308.5Z"/></g><circle id="Ellipse_46" data-name="Ellipse 46" class="cls-2" cx="154.5" cy="154.5" r="154"/><path id="Path_180" data-name="Path 180" class="cls-3" d="M184,174.8c-10.57-21.49-2.11-40.17,12.69-53.2,20.43-9.51,40.52-5.29,55.31,13.74,9.66-5.64,22-6.86,32.07-4.58,7.8-29.39.5-64.62-25.55-83.61a75.91,75.91,0,0,0-106.07,16.6h0a75.91,75.91,0,1,0-89.7,122.5l.23.17,122.67,89.47,32.53-45.07Z"/><path id="Path_181" data-name="Path 181" class="cls-4" d="M252.44,138.28a37.94,37.94,0,1,0-65.72,37.93c.06.11.12.22.19.33v0l38.29,65.51,65.52-38.29a37.94,37.94,0,0,0-38.07-65.64Z"/><path id="Path_182" data-name="Path 182" class="cls-5" d="M252.12,139.48A36.18,36.18,0,0,0,189.65,176l36.51,62.48L288.63,202a36.18,36.18,0,0,0-36.51-62.48Z"/><path id="Path_183" data-name="Path 183" class="cls-6" d="M288,202.29a36.18,36.18,0,0,0-36.35-62.56h0l36,62.78Z"/><path id="Path_184" data-name="Path 184" class="cls-7" d="M281.59,129.14a40.36,40.36,0,0,0-29.39,4.54,40.54,40.54,0,0,0-70,40.91l32.17,55-29.83,40.9-61.26-44.67,5.16-3a46.09,46.09,0,0,0-41.21-82.24,47.7,47.7,0,0,0-5.3,2.66,46.08,46.08,0,0,0-44.27-22.62,72.49,72.49,0,0,1,1.69-10.87c.09-.4.19-.8.29-1.2q.59-2.35,1.34-4.68l.12-.36c.23-.69.47-1.37.72-2.06s.58-1.55.9-2.33c.15-.38.31-.77.48-1.15s.32-.75.48-1.12l0,0c.17-.39.34-.77.52-1.15l.06-.13c.16-.34.32-.67.49-1s.37-.76.56-1.13c.41-.8.83-1.6,1.27-2.39.16-.29.33-.58.5-.87l.6-1,.29-.48c.54-.89,1.1-1.77,1.69-2.64l.41-.61.58-.84.71-1A72.58,72.58,0,0,1,152.78,67.72a72.59,72.59,0,0,1,128.8,61.42Z"/><path id="Path_185" data-name="Path 185" class="cls-5" d="M77.69,149.81A40.87,40.87,0,0,0,7.11,191.05l41.25,70.57,70.57-41.24a40.87,40.87,0,0,0-41.24-70.57Z"/><path id="Path_186" data-name="Path 186" class="cls-6" d="M152.9,67.74,87.21,140.61a46.71,46.71,0,0,0-5.29,2.66,46.09,46.09,0,0,0-44.27-22.62,73.77,73.77,0,0,1,1.68-10.87c.1-.4.19-.8.29-1.2q.6-2.35,1.35-4.68l.12-.36c.23-.69.47-1.37.72-2.06s.58-1.56.9-2.33c.15-.38.31-.77.47-1.15s.32-.75.49-1.12l0,0c.16-.39.34-.77.52-1.15l.06-.13.48-1,.57-1.13c.4-.8.83-1.6,1.27-2.39.16-.29.32-.58.49-.87s.4-.69.61-1l.29-.48q.81-1.33,1.68-2.64l.42-.61.58-.84.71-1A72.58,72.58,0,0,1,152.78,67.72l.1-.12Z"/></g></g></g></svg>