<svg xmlns="http://www.w3.org/2000/svg" viewBox="0 0 286 200.24"><defs><style>.cls-1{fill:#b5eadb;}.cls-2{fill:#3f3d56;}.cls-3{opacity:0.1;}.cls-10,.cls-3{isolation:isolate;}.cls-4{fill:#2f2e41;}.cls-5{fill:#6171d9;}.cls-6{fill:#f2f2f2;}.cls-7{fill:#ffb9b9;}.cls-8{fill:#c8cdf2;}.cls-9{fill:#a8a8a8;}.cls-10{opacity:0.2;}</style></defs><g id="Layer_2" data-name="Layer 2"><g id="Layer_10" data-name="Layer 10"><g id="Group_1" data-name="Group 1"><path id="Path_6" data-name="Path 6" class="cls-1" d="M282.77,117.92c0,28-16.65,37.77-37.17,37.77s-37.18-9.78-37.18-37.77S245.6,54.31,245.6,54.31,282.77,89.92,282.77,117.92Z"/><path id="Path_7" data-name="Path 7" class="cls-2" d="M244.24,151.4l.38-23.43,15.85-29L244.68,124.3l.17-10.54,10.92-21L244.9,111h0l.31-19,11.69-16.7L245.25,89.05l.2-34.75-1.21,46,.1-1.9L232.45,80.2,244.15,102,243,123.21l0-.56L229.3,103.5,243,124.63l-.14,2.65,0,0v.21L240,181.22h3.76l.45-27.73,13.63-21.08Z"/><path id="Path_8" data-name="Path 8" class="cls-1" d="M205.45,92.43c0,36.21-21.53,48.86-48.08,48.86s-48.08-12.65-48.08-48.86,48.08-82.26,48.08-82.26S205.45,56.23,205.45,92.43Z"/><path id="Path_9" data-name="Path 9" class="cls-2" d="M155.62,135.75l.49-30.3L176.6,68l-20.41,32.73.22-13.62,14.12-27.13L156.47,83.46h0l.4-24.51L172,37.36,156.93,55.1l.25-44.94-1.56,59.49.13-2.45L140.37,43.66,155.5,71.91l-1.44,27.37,0-.73L136.29,73.79,154,101.12l-.18,3.42,0,0,0,.28-3.64,69.44H155l.58-35.87,17.63-27.26Z"/><path id="Path_10" data-name="Path 10" class="cls-2" d="M279.79,186.36c0,2.73-7.92,5.27-21.6,7.41-24.79,3.89-68.5,6.47-118.29,6.47C62.64,200.24,0,194,0,186.36c0-1.06,1.2-2.1,3.48-3.09a60.09,60.09,0,0,1,11.64-3.2c10.57-2.06,26.18-3.82,45.23-5.13,22.11-1.52,48.85-2.42,77.69-2.46h1.86c3.47,0,6.91,0,10.33,0l4.79,0c17,.18,33.06.67,47.67,1.4l1.95.1.66,0h.18q4.31.22,8.42.48l2.68.17c8.59.56,16.52,1.21,23.65,1.94l3.59.38c9,1,16.62,2.12,22.48,3.34C275,182.21,279.79,184.23,279.79,186.36Z"/><ellipse id="Ellipse_1" data-name="Ellipse 1" class="cls-3" cx="202.97" cy="185.5" rx="30.48" ry="7.06"/><path id="Path_11" data-name="Path 11" class="cls-3" d="M279.79,186.36c0,2.73-7.92,5.27-21.6,7.41-10.34-1.12-17.5-3.56-17.5-6.39,0-3.52,11.1-6.43,25.61-7C275,182.21,279.79,184.23,279.79,186.36Z"/><path id="Path_12" data-name="Path 12" class="cls-3" d="M151.67,183.14c0,4.65-33.18,8.43-74.1,8.43-40.54,0-73.47-3.7-74.09-8.3,7.87-3.43,28.58-6.38,56.87-8.33,5.53-.15,11.29-.22,17.22-.22C118.49,174.71,151.67,178.49,151.67,183.14Z"/><rect id="Rectangle_3" data-name="Rectangle 3" class="cls-2" x="15.12" width="122.92" height="184.13"/><rect id="Rectangle_4" data-name="Rectangle 4" class="cls-4" x="22.55" y="63.94" width="115.49" height="56.5"/><rect id="Rectangle_5" data-name="Rectangle 5" class="cls-2" x="69.14" y="65.18" width="114.25" height="53.78"/><rect id="Rectangle_6" data-name="Rectangle 6" class="cls-5" x="76.15" y="73.11" width="25.53" height="9.17"/><rect id="Rectangle_7" data-name="Rectangle 7" class="cls-5" x="82.47" y="89.22" width="93.93" height="2.48"/><rect id="Rectangle_8" data-name="Rectangle 8" class="cls-5" x="82.47" y="95.66" width="93.93" height="2.48"/><rect id="Rectangle_9" data-name="Rectangle 9" class="cls-5" x="82.47" y="102.1" width="93.93" height="2.48"/><rect id="Rectangle_10" data-name="Rectangle 10" class="cls-5" x="82.47" y="108.55" width="93.93" height="2.48"/><rect id="Rectangle_11" data-name="Rectangle 11" class="cls-6" x="23.3" y="20.82" width="25.53" height="9.17"/><rect id="Rectangle_12" data-name="Rectangle 12" class="cls-6" x="29.62" y="36.93" width="93.93" height="2.48"/><rect id="Rectangle_13" data-name="Rectangle 13" class="cls-6" x="29.62" y="43.37" width="93.93" height="2.48"/><rect id="Rectangle_14" data-name="Rectangle 14" class="cls-6" x="29.62" y="49.81" width="93.93" height="2.48"/><rect id="Rectangle_15" data-name="Rectangle 15" class="cls-6" x="29.62" y="56.26" width="93.93" height="2.48"/><rect id="Rectangle_16" data-name="Rectangle 16" class="cls-6" x="24.29" y="126.14" width="25.53" height="9.17"/><rect id="Rectangle_17" data-name="Rectangle 17" class="cls-6" x="30.61" y="142.25" width="93.93" height="2.48"/><rect id="Rectangle_18" data-name="Rectangle 18" class="cls-6" x="30.61" y="148.69" width="93.93" height="2.48"/><rect id="Rectangle_19" data-name="Rectangle 19" class="cls-6" x="30.61" y="155.14" width="93.93" height="2.48"/><rect id="Rectangle_20" data-name="Rectangle 20" class="cls-6" x="30.61" y="161.58" width="93.93" height="2.48"/><path id="Path_13" data-name="Path 13" class="cls-7" d="M194.91,37.86S200,44.39,199.37,49s10.51-6.37,10.51-6.37-3.82-8-1.75-11.78S194.91,37.86,194.91,37.86Z"/><path id="Path_14" data-name="Path 14" class="cls-4" d="M212.74,170s6.69,7.32,5.58,8.92-20.7,7.64-22.93,7.32-3.35-1.91-2.55-2.39,5.89-3.18,5.89-3.18l4.3-4.94s3.19-1.75,3.19-2.71S212.74,170,212.74,170Z"/><path id="Path_15" data-name="Path 15" class="cls-7" d="M201.44,178.15s-2.55,4.14-3,4.3,2.39,5.89,2.39,5.89l6.69-2.07,3.66-3-.8-4.14Z"/><path id="Path_16" data-name="Path 16" class="cls-8" d="M194.59,99.17l-3.18,14.17s-11,24.68-3.35,29l16.72,32,8.92-4-15-32.8,6.85-37.74Z"/><path id="Path_17" data-name="Path 17" class="cls-3" d="M194.59,99.17l-3.18,14.17s-11,24.68-3.35,29l16.72,32,8.92-4-15-32.8,6.85-37.74Z"/><path id="Path_18" data-name="Path 18" class="cls-8" d="M195.71,101.4h-1.62a89.81,89.81,0,0,0,.82,14.65c1.11,8.12,4,26.75,4,26.75s-.32,3.5.64,4.62,1.11-.32,1.27,2.23,1.67,20.26,1.67,20.26,1,3.62-.08,4.42-3.34,5.1-1.75,5.73,12.58,1.43,13.06,1,0-30.42,0-30.42-.32-6-.64-6.37-1.75-4.62-1.27-5.57.16-3.82.16-4.3-1.44,0-.16-2.07,1.43-18.63,1.43-18.63,6.85-10.51,4.78-13.22Z"/><circle id="Ellipse_2" data-name="Ellipse 2" class="cls-7" cx="199.37" cy="29.74" r="10.51"/><path id="Path_19" data-name="Path 19" class="cls-4" d="M209.88,40.89s-6.37,1.59-8.92,5.41l-2.23.48V49S194.59,62.23,195.55,68s0,16.88-1.6,19.9-2.07,3.66-1.27,4.94,1.91,5.57,1.12,7.48,0,3.82,7.32,4.3,17.68.48,17.68-2.07-.64-9.71,0-11.62a9.19,9.19,0,0,0,.63-4.94c-.32-1.75.64-21.34.64-21.34S220.23,45,209.88,40.89Z"/><path id="Path_20" data-name="Path 20" class="cls-7" d="M194.91,90.09l-8.76,13.06s-9.23,8.44-5.89,12.26,12.1-11.15,12.1-11.15l9.55-10.82Z"/><path id="Path_21" data-name="Path 21" class="cls-4" d="M200.48,183.24s-.32-2.07-1.43-2.07-8.6,5.1-8.6,5.1-9.87,1.12-6,3.19,27.23,2.39,27.39,1.59.47-8.65-.64-8.62-10,1.77-10,1.77Z"/><path id="Path_22" data-name="Path 22" class="cls-4" d="M200.12,24.31a2.66,2.66,0,0,1-1.2.27c-.43,0-.95,0-1.18-.37a1.8,1.8,0,0,1-.14-.76,2.51,2.51,0,0,0-2.83-2.16h-.12a3.76,3.76,0,0,0,.47,1.5,3.19,3.19,0,0,1-2.81-.38l-.16,2.15a1.76,1.76,0,0,1-1.8-.06,1,1,0,0,1-.17-1.4.64.64,0,0,1,.2-.2c-.7-.15-1.55-.46-1.6-1.17s.64-1.12.77-1.75-.18-1.09,0-1.58c.26-.64,1.22-.8,1.41-1.47a5.36,5.36,0,0,0,0-1.06c.09-.92,1.25-1.3,2.18-1.25s1.93.3,2.72-.19a8.53,8.53,0,0,0,1-.92,2.91,2.91,0,0,1,3.39-.3,5.6,5.6,0,0,0,1.11.7c.85.28,1.74-.26,2.63-.39a2.2,2.2,0,0,1,1.82.53,1.49,1.49,0,0,1,.27,1.8,3.09,3.09,0,0,1,1.57,0,1,1,0,0,1,.64,1.26,1.42,1.42,0,0,0-.2.41c-.05.28.22.52.49.59s.56.07.83.16c1.09.4.83,2.15,1.68,2.93a6,6,0,0,0,.94.57,2.28,2.28,0,0,1,.8,2.74,2.49,2.49,0,0,0-.43,1.16c.05.59.68.9,1.11,1.3a2.56,2.56,0,0,1,.6,3c-.4.85-1.27,1.49-1.36,2.42,0,.4.08.81.07,1.21a2.51,2.51,0,0,1-1.07,1.89,5.46,5.46,0,0,1-2.07.86c-.35.09-.76.22-.84.56s.35.79.31,1.21a.7.7,0,0,1-.28.45,1.44,1.44,0,0,1-2-.54s0-.05,0-.08a4.15,4.15,0,0,1-.27-2.31l.21-2.86c.07-.89.06-2-.66-2.47s-2-.11-2.88-.5A2.61,2.61,0,0,1,202,27.2a15.81,15.81,0,0,0,.16-3.07c-.21-1.26-1.33-2.1-2.46-1.29C200.73,22.71,200.9,23.85,200.12,24.31Z"/><path id="Path_23" data-name="Path 23" class="cls-3" d="M208.92,48.53s-6.37,2.55-6.37,8,.32,12.58-.8,15-2.07,3.19-1.43,5.1,1.75,1.59,0,3-1.59-1-1.75,1.43,1.59,2.71,0,3.82-5.74,5.57-4,7,6.37,6.05,8,4.3,2.39-6.21,4.62-5.89,2.54.47,2.23-1.12-1.76-1.59.15-2.07,2.71.64,2.07-.95-1.11-2.23.16-4,1.92-2.24,1.76-4S217,60.64,217,60.64,218.16,47.26,208.92,48.53Z"/><path id="Path_24" data-name="Path 24" class="cls-3" d="M207.17,48.21s-6.37,2.55-6.37,8,.32,12.58-.8,15-2.07,3.18-1.43,5.1,1.75,1.59,0,3-1.59-1-1.75,1.43,1.59,2.71,0,3.82-5.74,5.57-4,7,6.37,6,8,4.3,2.39-6.21,4.61-5.9,2.55.48,2.23-1.11-1.75-1.59.16-2.07,2.71.64,2.07-1-1.11-2.22.16-4,1.91-2.23,1.75-4,3.5-17.51,3.5-17.51S216.41,46.94,207.17,48.21Z"/><path id="Path_25" data-name="Path 25" class="cls-4" d="M208,47.73s-6.37,2.55-6.37,8,.32,12.58-.8,15-2.07,3.19-1.44,5.1,1.76,1.6,0,3-1.59-1-1.75,1.43,1.6,2.71,0,3.83-5.73,5.57-4,7,6.37,6,8,4.3,2.39-6.21,4.62-5.89,2.55.48,2.23-1.11-1.75-1.6.16-2.07,2.71.63,2.07-1-1.11-2.23.16-4,1.91-2.23,1.75-4,3.5-17.52,3.5-17.52S217.2,46.46,208,47.73Z"/><path id="Path_26" data-name="Path 26" class="cls-4" d="M241.26,157.75c0,13.93,8.74,25.2,19.54,25.2"/><path id="Path_27" data-name="Path 27" class="cls-5" d="M260.8,183c0-14.08,9.75-25.48,21.8-25.48"/><path id="Path_28" data-name="Path 28" class="cls-5" d="M248.34,159c0,13.23,5.57,23.94,12.46,23.94"/><path id="Path_29" data-name="Path 29" class="cls-4" d="M260.8,183c0-18,11.27-32.56,25.2-32.56"/><path id="Path_30" data-name="Path 30" class="cls-9" d="M256.69,183.13s2.77-.08,3.6-.68,4.27-1.3,4.47-.35,4.17,4.74,1,4.77-7.27-.49-8.1-1S256.69,183.13,256.69,183.13Z"/><path id="Path_31" data-name="Path 31" class="cls-10" d="M265.85,186.54c-3.12,0-7.27-.49-8.1-1-.63-.38-.88-1.77-1-2.41h-.09s.17,2.23,1,2.74,5,1,8.1,1c.9,0,1.21-.33,1.2-.8C266.87,186.35,266.53,186.53,265.85,186.54Z"/></g></g></g></svg>