<svg xmlns="http://www.w3.org/2000/svg" viewBox="0 0 484 292.72"><defs><style>.cls-1{fill:#f2f2f2;}.cls-2{fill:#6c63ff;}.cls-3,.cls-4{fill:none;stroke-miterlimit:10;stroke-width:2px;}.cls-3{stroke:#fff;}.cls-4{stroke:#3f3d56;}.cls-5{fill:#2f2e41;}.cls-6{fill:#9f616a;}.cls-7{fill:#3f3d56;}.cls-8{fill:#ffb9b9;}.cls-9{fill:#575a89;}.cls-10{opacity:0.1;isolation:isolate;}</style></defs><g id="Layer_2" data-name="Layer 2"><g id="Layer_1-2" data-name="Layer 1"><g id="Group_19" data-name="Group 19"><path id="Path_267" data-name="Path 267" class="cls-1" d="M320.94,100.11,157.32,0l-24.9,40.7A30.78,30.78,0,0,1,100.3,93.18l-8.08,13.21h69v83.52L329.24,292.72l35.17-57.48H320.94Z"/><ellipse id="Ellipse_56" data-name="Ellipse 56" class="cls-2" cx="240.45" cy="219.32" rx="29.63" ry="4.58"/><path id="Path_268" data-name="Path 268" class="cls-2" d="M241.41,178.76l29.86-34.16a23.79,23.79,0,0,0-34-33.27,23.79,23.79,0,0,0-33.26,34l33.21,33.42"/><rect id="Rectangle_56" data-name="Rectangle 56" class="cls-3" x="1" y="105.92" width="161.13" height="146.1"/><rect id="Rectangle_57" data-name="Rectangle 57" class="cls-3" x="321.87" y="88.67" width="161.13" height="146.1"/><circle id="Ellipse_57" data-name="Ellipse 57" class="cls-2" cx="116.89" cy="67.29" r="20.06"/><path id="Path_269" data-name="Path 269" class="cls-4" d="M164.46,176.42s25.18-8.86,35.91,3.27,40.58-7,40.58-7"/><path id="Path_270" data-name="Path 270" class="cls-4" d="M369.2,179.69s-4.66-11.19-36.38-.93-76.48,9.79-87.68-6.07L275,138.54a23.79,23.79,0,0,0-34-33.27,23.79,23.79,0,0,0-33.26,34L241,172.69"/><ellipse id="Ellipse_58" data-name="Ellipse 58" class="cls-4" cx="244.24" cy="215.52" rx="29.63" ry="4.58"/><ellipse id="Ellipse_59" data-name="Ellipse 59" class="cls-2" cx="241.08" cy="247.74" rx="23.33" ry="3.61"/><ellipse id="Ellipse_60" data-name="Ellipse 60" class="cls-2" cx="241.08" cy="275.19" rx="15.76" ry="2.44"/><ellipse id="Ellipse_61" data-name="Ellipse 61" class="cls-4" cx="244.24" cy="244.53" rx="23.33" ry="3.61"/><ellipse id="Ellipse_62" data-name="Ellipse 62" class="cls-4" cx="244.24" cy="272.78" rx="15.76" ry="2.44"/><circle id="Ellipse_63" data-name="Ellipse 63" class="cls-5" cx="95.02" cy="166.72" r="15.51"/><path id="Path_271" data-name="Path 271" class="cls-6" d="M87.62,174.56s-5.05,11.19-6.49,11.55S93,193,93,193s2.53-13.71,3.61-14.43S87.62,174.56,87.62,174.56Z"/><circle id="Ellipse_64" data-name="Ellipse 64" class="cls-6" cx="95.2" cy="172.39" r="10.46"/><path id="Path_272" data-name="Path 272" class="cls-5" d="M104,252H59.47c1.48-5.4,3.07-10.77,4-13.74.45-1.5.73-2.39.73-2.39s33.55,7.21,34.27,7.58a8.18,8.18,0,0,1,1.07,1.41C100.56,246.42,102.23,249.07,104,252Z"/><path id="Path_273" data-name="Path 273" class="cls-6" d="M48.65,150l-10.82-16.6S40.5,116,36.9,119.26s-4.75,16.36-4.75,16.36l12.53,19.09Z"/><path id="Path_274" data-name="Path 274" class="cls-6" d="M146.79,180.33l9.74-.72s11.55-12.27,12.27-8.3-9.38,12.63-9.38,12.63l-13.35,1.44Z"/><path id="Path_275" data-name="Path 275" class="cls-7" d="M75.71,183.94v-3.61s-9.38-6.13-9-7.21a1.66,1.66,0,0,0-.72-1.8,8,8,0,0,1-1.08-1.8c0-.36-1.44-.72-1.44-.72l-9-10.47s-5.06-10.1-6.14-9.74-6.85,2.53-6.13,4S63.08,185,63.08,185s1.09,6.86,2.89,6.86S75.71,183.94,75.71,183.94Z"/><path id="Path_276" data-name="Path 276" class="cls-7" d="M99.89,188.27s7.93-.36,8.3,0,5.41,0,5.41,0,13.71-3.24,14.79-4.33,19.12-5.77,19.85-3.61,2.52,6.5.72,7.22-50.52,13-50.52,13Z"/><circle id="Ellipse_65" data-name="Ellipse 65" class="cls-5" cx="89.6" cy="150.4" r="6.42"/><path id="Path_277" data-name="Path 277" class="cls-5" d="M81,146.93a6.43,6.43,0,0,1,5.75-6.39c-.22,0-.44,0-.67,0a6.42,6.42,0,1,0,0,12.83h0c.23,0,.45,0,.67,0A6.42,6.42,0,0,1,81,146.93Z"/><ellipse id="Ellipse_66" data-name="Ellipse 66" class="cls-5" cx="96.83" cy="163.44" rx="10.69" ry="6.42"/><path id="Path_278" data-name="Path 278" class="cls-7" d="M84.55,180.15s-3.25,2.53-4,2.89-5-3.25-5.77-3.25-10.1,10.83-10.1,10.83,1.74,2,0,12.26c-.65,3.85-1.95,20.3-1.95,22.47s-7.07,7.48-.58,12.17,37.53,9.74,37.89,6.86-3.61-10.47-1.8-14.07,1.8-17,1.8-17l2.16-14.08,1.8-11.18s-8.48-2.35-9.2-2.35S90.87,190.8,84.55,180.15Z"/><rect id="Rectangle_58" data-name="Rectangle 58" class="cls-2" x="402.49" y="145.83" width="7.39" height="9.5" transform="translate(-5.53 15.85) rotate(-2.22)"/><path id="Path_279" data-name="Path 279" class="cls-8" d="M376.38,178.94s-10.22-4.89-10.06-.67,10.31,7,10.31,7Z"/><path id="Path_280" data-name="Path 280" class="cls-5" d="M423.93,234.77h-48.5a120.37,120.37,0,0,1,4.44-14.6c1.2-3.26,2.12-5.53,2.12-5.53,5.51-6.21,13.5-6.37,21-4.83.89.18,1.79.38,2.66.61l.31.08c1.75.45,3.46,1,5.06,1.5,2.78.9,5.28,1.82,7.3,2.44a17.77,17.77,0,0,0,3.13.73,4.1,4.1,0,0,0,.7,0c.8,0,1.36.83,1.72,2.34C424.68,220.93,424.5,227.62,423.93,234.77Z"/><path id="Path_281" data-name="Path 281" class="cls-8" d="M414.36,136.8s5.62,8.76,7.81,10.78-4,6.5-4,6.5l-11,1.48s.13-10-.43-11.07S414.36,136.8,414.36,136.8Z"/><path id="Path_282" data-name="Path 282" class="cls-2" d="M404.77,148.26s2.27,4.14,4.38,4.05,13-4.73,13.49-6.33,3.61,11.48,3.61,11.48l-26.7,47L393,200l3.16-27.59,2.59-14.89Z"/><path id="Path_283" data-name="Path 283" class="cls-9" d="M423.62,190.31a14.76,14.76,0,0,0-1.63,6.93c0,.11,0,.21,0,.32.26,4.88,2.05,10.52,2.7,14.63.47,2.94.33,5.09-1.39,5.6-4.18,1.21.61,2.09-15.55,7.47s-19,.73-19-.32,2.29-9.07,1.74-9.58-7.66,6.64-9.81,5.67-.25-6.33-.25-6.33,4.84-11.28,4.74-13.92,7.34-15.07,7.34-15.07l5.06-33s1.95-4.29,4.56-4.93a6.5,6.5,0,0,1,4.79.87l-4.38,9.68-4.62,17.08.77,6.31s5.38-11.3,8.9-15.66,11.06-14.69,11.06-14.69,1.75-5.92.42-7.7,5.54-2,8.46,5.24c1.55,3.86,4.06,9.61,5.64,15,1.4,4.75,2.07,9.19.68,11.72C431.7,179.53,426.35,184.62,423.62,190.31Z"/><path id="Path_284" data-name="Path 284" class="cls-10" d="M433.83,175.65c-2.13,3.88-7.48,9-10.2,14.66-.72-2.57-1.59-5.22-1.59-5.22s-3.33-17.83,6.53-22.44a6.64,6.64,0,0,1,4.58,1.28C434.55,168.68,435.22,173.12,433.83,175.65Z"/><path id="Path_285" data-name="Path 285" class="cls-9" d="M394.7,174.53,386.34,177l-11.6.45-1.19,10.08,19.06,1.37S397.38,175.48,394.7,174.53Z"/><path id="Path_286" data-name="Path 286" class="cls-8" d="M408.32,208.43s-11.18,1.85-8.62,5.22,12.45-.18,12.45-.18Z"/><path id="Path_287" data-name="Path 287" class="cls-10" d="M422,197.56c.26,4.88,2.05,10.52,2.7,14.63-3.56,3.37-6.95,6.34-8.22,6.39-2.64.1-6.88-.26-8.44.33s-2.48-9.41-2.48-9.41a8.65,8.65,0,0,1,5.09-5A58,58,0,0,0,422,197.56Z"/><path id="Path_288" data-name="Path 288" class="cls-9" d="M428.45,159.49s8.92-1.4,8.44,13.4.94,24.26-2.65,27S419,215.31,416.35,215.41s-6.87-.26-8.43.33-2.48-9.41-2.48-9.41a8.6,8.6,0,0,1,5.09-5c4.16-1.75,14-7.94,13.87-10s-2.48-9.41-2.48-9.41S418.59,164.1,428.45,159.49Z"/><circle id="Ellipse_67" data-name="Ellipse 67" class="cls-8" cx="406.49" cy="138.16" r="11.61"/><path id="Path_289" data-name="Path 289" class="cls-5" d="M398.67,121.52a2.23,2.23,0,0,1-1,.49.71.71,0,0,1-.81-.56,2.94,2.94,0,0,1-1.11,1.42c-.54.28-1.38,0-1.46-.56a2.51,2.51,0,0,1-.59,1.24.88.88,0,0,1-1.24,0,30.63,30.63,0,0,1,.17,4,5,5,0,0,0,1.42,3.58c1.45,1.27,3.64.95,5.55.71a1.68,1.68,0,0,1,.86,0c.72.31.69,1.3.7,2.08a5.77,5.77,0,0,0,5.05,5.48,2.85,2.85,0,0,0,2.15-.53c.54-.46.82-1.2,1.44-1.55,1-.56,2.24.26,3,1.15s1.47,2,2.62,2.14c1.51.22,2.66-1.32,3.23-2.75a16,16,0,0,0-.32-12.44C415.17,118.57,404.38,117.48,398.67,121.52Z"/></g></g></g></svg>