<svg xmlns="http://www.w3.org/2000/svg" viewBox="0 0 256 148.01"><defs><style>.cls-1{fill:#3f3d56;}.cls-2{fill:#a0616a;}.cls-3{fill:#2f2e41;}.cls-4{fill:#575a89;}.cls-5{opacity:0.2;isolation:isolate;}.cls-6{fill:#83dec4;}.cls-7{fill:#fbbebe;}.cls-8{fill:#cfcce0;}</style></defs><g id="Layer_2" data-name="Layer 2"><g id="Layer_10" data-name="Layer 10"><g id="Group_67" data-name="Group 67"><rect id="Rectangle_34" data-name="Rectangle 34" class="cls-1" x="191.67" y="106.63" width="64.33" height="0.53"/><path id="Path_59" data-name="Path 59" class="cls-2" d="M206,101.84l1.87,9.87,4,1.07L210.82,101Z"/><path id="Path_60" data-name="Path 60" class="cls-2" d="M228.44,101.84l1.86,9.87,4,1.07L233.24,101Z"/><path id="Path_61" data-name="Path 61" class="cls-3" d="M210.28,109.84s-4.27-.26-4.27,1.07-2.13,5.88-2.13,5.88-1.6,5.33,2.67,4.8,6.94-5.34,6.94-5.34l-1.07-5.07Z"/><path id="Path_62" data-name="Path 62" class="cls-3" d="M231.68,110.34s-2.85-1.83-2.65-.61.41,4.47,1.83,4.68,5.7,1.42,5.9,1.83,5.09,2,5.09-.61-3-4.68-3-4.68l-3.46-2.65s-2.24-.2-2.65,1.22S231.68,110.34,231.68,110.34Z"/><path id="Path_63" data-name="Path 63" class="cls-2" d="M204.61,45.64s-4.53-6.68-6.14-4.54,4,6.14,4,6.14Z"/><path id="Path_64" data-name="Path 64" class="cls-4" d="M206.21,52c-.26-.26-5.07-4.8-5.07-4.8l3.47-2.4,4,4Z"/><path id="Path_65" data-name="Path 65" class="cls-4" d="M206.88,31.35s-3.47.27-3.2,3.21,2.53,12.68,2.53,12.68l1.34,2.67S212.49,34.56,206.88,31.35Z"/><path id="Path_66" data-name="Path 66" class="cls-3" d="M207.15,22l1,3.21h12l.35-3.48,1,3.48h1.55l.34-3.48,1,3.48h1.63l-1.53-3.69A29.74,29.74,0,0,1,223,16.07a10.29,10.29,0,0,0-10.07-8.21h-.43A9.8,9.8,0,0,0,204,21.45l1.57,3.77h1.28Z"/><path id="Path_67" data-name="Path 67" class="cls-3" d="M207,49.91s-8.28,6.94-5.88,16.28,3.21,38.71,3.21,38.71l8.27-.8V67.26L224.1,89.15,226,104.9l9.34-1.6L231,84.08l-8.21-24.5L222,52.51Z"/><circle id="Ellipse_9" data-name="Ellipse 9" class="cls-2" cx="212.75" cy="16.67" r="5.61"/><path id="Path_68" data-name="Path 68" class="cls-2" d="M209.42,20.54s2.4,8.81,1.07,9.88S219.83,27,219.83,27s-4.54-5.07-4-7.21Z"/><path id="Path_69" data-name="Path 69" class="cls-4" d="M219.3,25.08s-4.28,3.68-8.42,4c0,0-5.47,3-5.2,3.23a29.84,29.84,0,0,1,1.07,4s1.33,2.06,1.33,6.41c0,.53-1.87,8-1.87,8L222,52.84S226.24,39,226.5,34.16,228.37,24.28,226,24,219.3,25.08,219.3,25.08Z"/><path id="Path_70" data-name="Path 70" class="cls-4" d="M225.43,25.08s1.87-1.6,2.94,2.14,5.34,15.48,4.27,17.88-7.47,13.08-7.47,13.08L222,56.05l6.41-12-3.74-8.54Z"/><path id="Path_71" data-name="Path 71" class="cls-2" d="M223.3,55.78s-8.28,5.07-5.61,6.14,7.21-4.54,7.21-4.54Z"/><path id="Path_72" data-name="Path 72" class="cls-3" d="M206.62,10.27v5.6h2.13l.8-2.4.2,2.4h5.94l.8-2.4.2,2.4h2.47v-5.6Z"/><path id="Path_73" data-name="Path 73" class="cls-5" d="M206.62,36.69s-.54,5.34.26,6.41S206.62,36.69,206.62,36.69Z"/><rect id="Rectangle_35" data-name="Rectangle 35" class="cls-1" x="47.25" y="129.86" width="113.18" height="0.53"/><path id="Path_74" data-name="Path 74" class="cls-1" d="M153.55,89.31l-32.84,32.84a26.78,26.78,0,0,1-37.86,0c-.44-.44-.87-.9-1.27-1.37a24.12,24.12,0,0,1-1.87-2.4,26.28,26.28,0,0,1-4.23-10.15,23.9,23.9,0,0,1-.34-2.4,25.06,25.06,0,0,1-.13-2.61A27,27,0,0,1,76,96c.23-.82.5-1.62.8-2.41a26.78,26.78,0,0,1,6-9.26L97.18,70a4,4,0,0,1,5.76,5.56l-.1.1L88.51,90a19.22,19.22,0,0,0-2.82,3.6A18.64,18.64,0,0,0,83,103.22a18.86,18.86,0,0,0,.18,2.61,17.62,17.62,0,0,0,.5,2.4,18.76,18.76,0,0,0,31.35,8.26l8.25-8.26L138,93.55l9.91-9.9a18.8,18.8,0,0,0,2.1-24A4,4,0,1,1,156.56,55a26.81,26.81,0,0,1-3,34.27Z"/><path id="Path_75" data-name="Path 75" class="cls-1" d="M205,26.76v.59a26.61,26.61,0,0,1-2.23,10.14,25.75,25.75,0,0,1-1.2,2.41,26.72,26.72,0,0,1-4.41,5.79L182.85,60a4,4,0,1,1-5.76-5.56l.09-.1L191.51,40l.13-.13A18.65,18.65,0,0,0,197,27.35c0-.2,0-.39,0-.59,0-.61,0-1.21-.09-1.81a18.77,18.77,0,0,0-5.41-11.46c-.28-.28-.58-.56-.88-.82a18.75,18.75,0,0,0-24.77,0c-.31.26-.6.54-.88.82L132.14,46.33a18.77,18.77,0,0,0,0,26.53,4,4,0,0,1-5.66,5.67,26.8,26.8,0,0,1,0-37.86L159.32,7.83a26.78,26.78,0,0,1,37.89,0,26.23,26.23,0,0,1,3.8,4.8,25.6,25.6,0,0,1,1.33,2.4A26.53,26.53,0,0,1,205,25C205,25.55,205,26.15,205,26.76Z"/><path id="Path_76" data-name="Path 76" class="cls-6" d="M33.45,140.58C32.23,145.1,28,147.9,28,147.9s-2.21-4.53-1-9.05,5.41-7.32,5.41-7.32S34.68,136.06,33.45,140.58Z"/><path id="Path_77" data-name="Path 77" class="cls-6" d="M22.33,140.58c1.22,4.52,5.41,7.32,5.41,7.32s2.2-4.53,1-9.05-5.41-7.32-5.41-7.32S21.1,136.06,22.33,140.58Z"/><path id="Path_78" data-name="Path 78" class="cls-1" d="M24.12,139.61c3.36,3.26,3.77,8.29,3.77,8.29s-5-.28-8.39-3.55-3.76-8.28-3.76-8.28S20.77,136.34,24.12,139.61Z"/><path id="Path_79" data-name="Path 79" class="cls-1" d="M31.66,139.61c-3.36,3.26-3.77,8.29-3.77,8.29s5-.28,8.39-3.55S40,136.07,40,136.07,35,136.34,31.66,139.61Z"/><path id="Path_80" data-name="Path 80" class="cls-1" d="M182.32,26.28a5.46,5.46,0,0,1-.1,1.07,5.39,5.39,0,1,1,.1-1.07Z"/><path id="Path_81" data-name="Path 81" class="cls-1" d="M103.57,107.17a5.35,5.35,0,1,1-4.28-5.24A5.36,5.36,0,0,1,103.57,107.17Z"/><rect id="Rectangle_36" data-name="Rectangle 36" class="cls-1" y="147.48" width="61.66" height="0.53"/><path id="Path_82" data-name="Path 82" class="cls-6" d="M154.48,12.67h11.38c-.31.26-.6.54-.88.82l-1.58,1.58H152.07Z"/><path id="Path_83" data-name="Path 83" class="cls-6" d="M202.34,15.07h-9.42a19.16,19.16,0,0,0-1.41-1.58c-.28-.28-.58-.56-.88-.82H201a25.6,25.6,0,0,1,1.33,2.4Z"/><path id="Path_84" data-name="Path 84" class="cls-6" d="M142.2,25h11.32l-2.4,2.4H139.79Z"/><path id="Path_85" data-name="Path 85" class="cls-6" d="M182.16,25a5.4,5.4,0,0,1,.06,2.4H171.75a5.4,5.4,0,0,1,.06-2.4Z"/><path id="Path_86" data-name="Path 86" class="cls-6" d="M205,26.76v.59h-8c0-.2,0-.39,0-.59,0-.61,0-1.21-.09-1.81h8C205,25.55,205,26.15,205,26.76Z"/><path id="Path_87" data-name="Path 87" class="cls-6" d="M129.65,37.49H141l-2.4,2.41H127.25Z"/><path id="Path_88" data-name="Path 88" class="cls-6" d="M202.78,37.49a25.75,25.75,0,0,1-1.2,2.41h-9.94a19.23,19.23,0,0,0,2-2.41Z"/><path id="Path_89" data-name="Path 89" class="cls-6" d="M85.69,93.55A19.44,19.44,0,0,0,84.47,96H76c.23-.82.5-1.62.8-2.41Z"/><path id="Path_90" data-name="Path 90" class="cls-6" d="M149.31,93.55,146.91,96H135.58l2.4-2.41Z"/><path id="Path_91" data-name="Path 91" class="cls-6" d="M83.7,108.23H75.48a23.9,23.9,0,0,1-.34-2.4H83.2A17.62,17.62,0,0,0,83.7,108.23Z"/><path id="Path_92" data-name="Path 92" class="cls-6" d="M103.57,107.17a5.36,5.36,0,0,1-.1,1.06H93a5.41,5.41,0,0,1,.06-2.4h10.35A5.52,5.52,0,0,1,103.57,107.17Z"/><path id="Path_93" data-name="Path 93" class="cls-6" d="M137,105.83l-2.4,2.4H123.3l2.4-2.4Z"/><path id="Path_94" data-name="Path 94" class="cls-6" d="M95.15,120.78H81.58a24.12,24.12,0,0,1-1.87-2.4h11A18.27,18.27,0,0,0,95.15,120.78Z"/><path id="Path_95" data-name="Path 95" class="cls-6" d="M124.48,118.38l-2.4,2.4H108.41a18.27,18.27,0,0,0,4.43-2.4Z"/><path id="Path_96" data-name="Path 96" class="cls-3" d="M84.25,45.3a7.93,7.93,0,0,0-6.08-3.61s-3.94-.5-6.46,4.75c-2.35,4.89-5.6,9.62-.52,10.77l.91-2.86.57,3.07c.72,0,1.45.06,2.17,0,5.44-.18,10.62,0,10.45-1.9C85.07,53,86.21,48.62,84.25,45.3Z"/><path id="Path_97" data-name="Path 97" class="cls-7" d="M69.54,121.45l.27,6.94h4.8l-.27-7.48Z"/><path id="Path_98" data-name="Path 98" class="cls-3" d="M82.62,72.33,82.13,74,75.84,94.86l-.7,2.3.54,24.56-6.67.8s-.2-2.58-.49-6.39c-.57-7.54-1.51-19.9-2-26.63-.2-2.48-.35-4.2-.4-4.62-.27-2.14,3.2-12.82,3.2-12.82l6.94-.53Z"/><path id="Path_99" data-name="Path 99" class="cls-3" d="M71.14,127.59s-1.87-2.14-2.13-.54-3.48,7.75-3.48,7.75-9.34,6.14-1.33,6.67c0,0,4-.53,5.34-2.67a12.18,12.18,0,0,1,2.67-1.33c.53,0,3.74-1.07,3.2-2.67s-.27-7.48-.27-7.48Z"/><path id="Path_100" data-name="Path 100" class="cls-7" d="M70.87,115l2.41,4.54L77,117.71l-2.4-5.34Z"/><path id="Path_101" data-name="Path 101" class="cls-5" d="M69,102a35.78,35.78,0,0,1-2.54-11.08C70.33,86.56,75,81.81,75,81.81l5.61-.27,1.73-.13c.41,4-3,9.28-6.51,13.45A75.08,75.08,0,0,1,69,102Z"/><path id="Path_102" data-name="Path 102" class="cls-3" d="M76,81.67s-17.09,15-14.69,21.09,9.08,13.62,9.08,13.62l5.16-3.08L70.61,102s2-1.82,4.54-4.51c4.06-4.38,9.3-11.08,8.8-16l-.26-9.08-4.54.53Z"/><path id="Path_103" data-name="Path 103" class="cls-3" d="M74.34,118.51s-1.86,0-1.6,1.6.8,4.28.8,4.28-2.13,12.54,2.94,9.61,3.74-10.68,3.74-10.68,1.87-4.81-.54-5.34-3.2-1.07-3.47-.8S74.34,118.51,74.34,118.51Z"/><circle id="Ellipse_10" data-name="Ellipse 10" class="cls-7" cx="78.08" cy="48.31" r="4.81"/><path id="Path_104" data-name="Path 104" class="cls-7" d="M76.21,50.17s2.14,5.61,1.34,5.88a11.85,11.85,0,0,0-2.41,1.6l2.67,2.4,6.94-3.74s-3.2-4.27-2.93-6.14Z"/><path id="Path_105" data-name="Path 105" class="cls-8" d="M84.75,55.25s-5.58,2.75-7.59,1c0,0-3.35-.17-3.88,1.7s.53,3.47-.8,4-2.27,2-1.47,4.4.66,2.81-.4,3.61a6.17,6.17,0,0,0-2.14,2.93c0,.54-1.07.54-.53,1.07s-.54,0,.53.54,4-4.27,6.14-1.87,8.81,6.4,9.34,4,2.14-8.27,2.14-8.27,5.61-10.41,4-11.48S84.75,55.25,84.75,55.25Z"/><path id="Path_106" data-name="Path 106" class="cls-7" d="M84,73.93S81,73.4,80.22,75.27s-5.34,6.14-2.41,6.4,5.08-4.53,5.08-4.53l2.93-.54Z"/><path id="Path_107" data-name="Path 107" class="cls-8" d="M86.89,56.85l3.49.19a7.91,7.91,0,0,1,1.85,3.28c.27,1.6,5.34,13.61,2.13,14.95S84.22,77.4,84.22,77.4l-.8-3.73L88,72.06l-3.21-6.67Z"/><path id="Path_108" data-name="Path 108" class="cls-5" d="M71,102.1l4.39,11-5.19-11,4.53-4.81Z"/><path id="Path_109" data-name="Path 109" class="cls-5" d="M68.38,114.18l1.83,2.33H68.87Z"/><circle id="Ellipse_11" data-name="Ellipse 11" class="cls-3" cx="78.66" cy="41.71" r="2.92"/><path id="Path_110" data-name="Path 110" class="cls-3" d="M75.43,40.94A2.92,2.92,0,0,1,78.05,38a2.92,2.92,0,1,0-.62,5.8,3.21,3.21,0,0,0,.62,0,2.92,2.92,0,0,1-2.62-2.9Z"/><path id="Path_111" data-name="Path 111" class="cls-3" d="M83.34,45l-4-2.09-5.5.85-1.14,5,2.83-.1.8-1.85v1.82l1.3-.05.76-2.95.48,3.14,4.65-.1Z"/></g></g></g></svg>