<svg xmlns="http://www.w3.org/2000/svg" xmlns:xlink="http://www.w3.org/1999/xlink" viewBox="0 0 482 374.91"><defs><style>.cls-1,.cls-15,.cls-20{fill:#6c63ff;}.cls-1,.cls-12,.cls-2{opacity:0.1;}.cls-1,.cls-12,.cls-19,.cls-2,.cls-20,.cls-21,.cls-8{isolation:isolate;}.cls-3{fill:url(#linear-gradient);}.cls-4{fill:#1d2366;}.cls-5{fill:#ffb0b1;}.cls-6{fill:#c7daf5;}.cls-12,.cls-21,.cls-7{fill:#fff;}.cls-8{opacity:0.03;}.cls-9{fill:#dce7ff;}.cls-10{fill:#591d4b;}.cls-11{fill:#be8b87;}.cls-13{fill:#efc8c4;}.cls-14{fill:#727a9c;}.cls-16{fill:#ffd037;}.cls-17{fill:#65617d;}.cls-18{fill:#9d9cb5;}.cls-19{fill:#96b7fe;opacity:0.9;}.cls-20{opacity:0.3;}.cls-21{opacity:0.2;}</style><linearGradient id="linear-gradient" x1="-61.78" y1="734.25" x2="-61.78" y2="733.25" gradientTransform="matrix(141.76, 0, 0, -336.89, 8973.73, 247544.81)" gradientUnits="userSpaceOnUse"><stop offset="0" stop-color="gray" stop-opacity="0.25"/><stop offset="0.54" stop-color="gray" stop-opacity="0.12"/><stop offset="1" stop-color="gray" stop-opacity="0.1"/></linearGradient></defs><g id="Layer_2" data-name="Layer 2"><g id="Layer_1-2" data-name="Layer 1"><g id="Group_2" data-name="Group 2"><ellipse id="Ellipse_1" data-name="Ellipse 1" class="cls-1" cx="205.08" cy="367.35" rx="58.1" ry="7.57"/><path id="Path_1" data-name="Path 1" class="cls-1" d="M3.47,148.31H48V209H6.71c-.1.63-.21,1.25-.33,1.88H48v48.91l-.21-.08c-1.18-.48-2.35-1-3.5-1.48l-.75-.34c-1.18-.55-2.35-1.14-3.5-1.76-.41-.21-.82-.43-1.22-.66a73.46,73.46,0,0,1-17.5-13.62l-.43-.45c-.71-.77-1.4-1.55-2.08-2.35l-.75-.89c-.8-1-1.57-2-2.32-3-.11-.15-.21-.3-.33-.45a65,65,0,0,1-7.54-13.63l-.17-.45c-.61-1.54-1.16-3.09-1.63-4.68-.2-.66-.4-1.34-.56-2-.07-.2-.12-.4-.17-.6-2.46-9.72-2.75-19.81-2.75-29.86V180c0-4.06,0-8.14.12-12.22,0-1.05,0-2.11.07-3.17q.09-4,.26-8.08c0-.74.06-1.5.1-2.24,0-.43,0-.86.06-1.29C3.27,151.41,3.36,149.85,3.47,148.31Z"/><path id="Path_2" data-name="Path 2" class="cls-1" d="M48,80.77H23.55a185,185,0,0,1,13-17.87Q42,56.21,48,49.92Z"/><path id="Path_3" data-name="Path 3" class="cls-1" d="M48,82.65v63.79H3.6a5.07,5.07,0,0,1,0-.56c0-.48.08-1,.12-1.51s.1-1.18.16-1.77.12-1.28.18-1.93.13-1.28.2-1.92.14-1.27.22-1.9.15-1.27.23-1.9L5,133.37c.1-.74.21-1.48.32-2.22a1.88,1.88,0,0,1,0-.33,152.87,152.87,0,0,1,3.26-16,118.75,118.75,0,0,1,5.5-16.23,122.12,122.12,0,0,1,8.29-16Z"/><path id="Path_4" data-name="Path 4" class="cls-1" d="M58.6,148.31V209h95.06V148.31Zm0,62.55V263c.54.11,1.08.22,1.61.31.73.14,1.45.27,2.19.38a3.41,3.41,0,0,1,.43.06l.87.12c.73.1,1.46.19,2.2.25l1,.1.85.06h0l1.36.08a6,6,0,0,1,.85,0h3.11c.38,0,.75,0,1.13,0h0a6.79,6.79,0,0,0,.78,0,.89.89,0,0,0,.23,0,3.58,3.58,0,0,0,.65,0h.15l1.45-.11L79,264l1-.12a88.29,88.29,0,0,0,12-2.56c8.87-2.48,17.52-5.94,26.41-8.47,11.45-3.27,24.12-4.88,35.19-.9v-41.1ZM153.66,80.77V0a121.8,121.8,0,0,0-30.89,3.62c-24.08,6-45.68,19.16-64.17,35.92V80.77h4.75v1.88H58.58v63.82h95.08V82.65H83V80.77ZM275.78,53.49a39.41,39.41,0,0,1-17.23-5C248.31,42.91,240.11,34.31,231,27.06A126.51,126.51,0,0,0,164.29.56V80.78H300l.34-.36Zm12.36-2.21,13.11,14.39V47.51A52.61,52.61,0,0,0,288.14,51.28Zm13.11,224.6v-65H273.3q-.1-.42-.24-.84c.09.28.16.56.24.84h-109v47c1,.77,2.06,1.57,3.07,2.42h0c1.09.89,2.17,1.8,3.26,2.71l1.09.9,1.57,1.29,3.19,2.53,1.62,1.24a219.1,219.1,0,0,0,27,17.68q3.16,1.75,6.4,3.42c1.43.73,2.87,1.46,4.32,2.17q3.25,1.59,6.57,3.08h0A241.44,241.44,0,0,0,286.47,314q7.36,1.08,14.78,1.71V275.88Zm-137-193.23v63.82h137V82.65Zm0,65.66V209h137V148.31ZM311.88,47.43V67.72l16.74-18.36Q320.29,48,311.88,47.43Zm0,100.88V209H445.09V148.31Zm132.74,132.4.49-69.85H311.88V316.37a237.67,237.67,0,0,0,25.74-.31h.15q6.14-.39,12.23-1.12h.09a225.39,225.39,0,0,0,62.8-16.79m57.9-139.87c-.51-1.18-1-2.35-1.56-3.51-1-2.18-2-4.33-3.11-6.46H455.73V209H482c0-17.18-4.37-34.72-11.21-50.7Zm-15.07,52.57V271a85.8,85.8,0,0,0,18.16-24.49,84.36,84.36,0,0,0,8.1-35.6Zm0-80.22v15.84h9.42a167.1,167.1,0,0,0-9.42-15.83ZM365.4,59.33l-2.08-.78a188.41,188.41,0,0,0-22.5-6.78l-25.6,28.07h0l-.49.54.33.36h91.08A194.59,194.59,0,0,0,365.4,59.33Zm43.44,23.32H313.75l-1.87,1.71v62.1h133.2v-30.1a189.42,189.42,0,0,0-36.25-33.71Z"/><path id="Path_5" data-name="Path 5" class="cls-1" d="M48,114.82v31.62H3.6a5.07,5.07,0,0,1,0-.56c0-.48.08-1,.12-1.51s.1-1.18.16-1.77.12-1.28.18-1.93.13-1.28.2-1.92.14-1.27.22-1.9.15-1.27.23-1.9L5,133.37c.1-.74.21-1.48.32-2.22a1.88,1.88,0,0,1,0-.33,152.87,152.87,0,0,1,3.26-16Z"/><path id="Path_6" data-name="Path 6" class="cls-1" d="M3.47,148.31H48V209H6.71c-.1.63-.21,1.25-.33,1.88H48v48.91l-.21-.08c-1.18-.48-2.35-1-3.5-1.48l-.75-.34c-1.18-.55-2.35-1.14-3.5-1.76-.41-.21-.82-.43-1.22-.66a73.46,73.46,0,0,1-17.5-13.62l-.43-.45c-.71-.77-1.4-1.55-2.08-2.35l-.75-.89c-.8-1-1.57-2-2.32-3-.11-.15-.21-.3-.33-.45a65,65,0,0,1-7.54-13.63l-.17-.45c-.61-1.54-1.16-3.09-1.63-4.68-.2-.66-.4-1.34-.56-2-.07-.2-.12-.4-.17-.6-2.46-9.72-2.75-19.81-2.75-29.86V180c0-4.06,0-8.14.12-12.22,0-1.05,0-2.11.07-3.17q.09-4,.26-8.08c0-.74.06-1.5.1-2.24,0-.43,0-.86.06-1.29C3.27,151.41,3.36,149.85,3.47,148.31Z"/><path id="Path_7" data-name="Path 7" class="cls-1" d="M92.06,91.78v54.66H58.6V91.78h4.77V73.28H83v18.5Z"/><rect id="Rectangle_4" data-name="Rectangle 4" class="cls-1" x="58.6" y="148.31" width="33.46" height="60.67"/><path id="Path_8" data-name="Path 8" class="cls-1" d="M58.6,210.85H92.06V261.3a88.44,88.44,0,0,1-12,2.55L79,264l-1.46.15-1.45.12H76c-.21,0-.43,0-.65,0H75.1c-.27,0-.53,0-.79,0h0c-.38,0-.75,0-1.13,0H70.05l-.85,0c-.45,0-.91,0-1.37-.07h0l-.84-.07-1-.1c-.73-.06-1.45-.15-2.2-.25l-.87-.12a3.32,3.32,0,0,1-.44-.06c-.73-.11-1.45-.23-2.18-.37L58.63,263Z"/><rect id="Rectangle_5" data-name="Rectangle 5" class="cls-1" x="273.66" y="85.33" width="27.6" height="61.11"/><path id="Path_9" data-name="Path 9" class="cls-1" d="M301.26,148.31V209h-137V182.82h72.95v15.43h36.41V148.31Z"/><path id="Path_10" data-name="Path 10" class="cls-1" d="M301.69,275.9h-.44v39.8q-7.41-.63-14.78-1.71a241.91,241.91,0,0,1-64.06-18.68q-8.82-4-17.3-8.68a220,220,0,0,1-27-17.68q-3.24-2.46-6.38-5.06c-1.45-1.2-2.9-2.42-4.36-3.61-1-.82-2-1.63-3.07-2.42v-47h109l-.23-.84c.08.28.16.55.23.84h28v65Z"/><path id="Path_11" data-name="Path 11" class="cls-1" d="M373.22,80.77h-18V75.18h8.05V58.54l2.09.79V75.18h7.83Z"/><path id="Path_12" data-name="Path 12" class="cls-1" d="M416.55,146.44H328.27l0,0,0,0H311.88V85.32h4.63v45.17h21.2V103.77h17.53V82.65h18v21.12h17.51v26.72h25.82Z"/><path id="Path_13" data-name="Path 13" class="cls-1" d="M311.88,148.31V209H416.55V148.31ZM444.94,280.38l.15-48H416.53V210.85H311.88V316.37a237.67,237.67,0,0,0,25.74-.31h.15q6.14-.39,12.23-1.12h.09a225.39,225.39,0,0,0,62.8-16.79"/><path id="Path_14" data-name="Path 14" class="cls-1" d="M457.57,210.85H482a84.43,84.43,0,0,1-8.1,35.59,85.63,85.63,0,0,1-18.15,24.49V232.36h1.84Z"/><path id="Path_15" data-name="Path 15" class="cls-1" d="M482,209H457.57v-50.7h13.22C477.63,174.26,482,191.8,482,209Z"/><rect id="Rectangle_6" data-name="Rectangle 6" class="cls-1" x="286.47" y="102.31" width="14.78" height="19.16"/><rect id="Rectangle_7" data-name="Rectangle 7" class="cls-1" x="286.47" y="142.03" width="14.78" height="4.41"/><rect id="Rectangle_8" data-name="Rectangle 8" class="cls-1" x="286.47" y="148.31" width="14.78" height="12.87"/><rect id="Rectangle_9" data-name="Rectangle 9" class="cls-1" x="286.47" y="181.74" width="14.78" height="19.16"/><rect id="Rectangle_10" data-name="Rectangle 10" class="cls-1" x="286.47" y="221.46" width="14.78" height="19.16"/><path id="Path_16" data-name="Path 16" class="cls-1" d="M301.26,275.87l.43,0h-.43v4.45H286.47V261.19h14.79Z"/><path id="Path_17" data-name="Path 17" class="cls-1" d="M301.26,300.88v14.8q-7.42-.63-14.79-1.71V300.88Z"/><rect id="Rectangle_11" data-name="Rectangle 11" class="cls-1" x="164.3" y="207.57" width="63.35" height="1.41"/><rect id="Rectangle_12" data-name="Rectangle 12" class="cls-1" x="164.3" y="210.86" width="63.35" height="5.39"/><rect id="Rectangle_13" data-name="Rectangle 13" class="cls-1" x="164.3" y="233.93" width="63.35" height="8.67"/><path id="Path_18" data-name="Path 18" class="cls-1" d="M227.64,260.29V269H178.07c-2.15-1.65-4.28-3.33-6.37-5.06-1.46-1.2-2.9-2.42-4.36-3.61Z"/><path id="Path_19" data-name="Path 19" class="cls-1" d="M227.64,286.64v8.67h-5.22q-8.83-4-17.3-8.67Z"/><rect id="Rectangle_14" data-name="Rectangle 14" class="cls-1" x="337.63" y="154.2" width="12.47" height="12.47"/><rect id="Rectangle_15" data-name="Rectangle 15" class="cls-1" x="67.58" y="96.08" width="12.47" height="12.47"/><rect id="Rectangle_16" data-name="Rectangle 16" class="cls-1" x="67.58" y="125.05" width="12.47" height="12.47"/><rect id="Rectangle_17" data-name="Rectangle 17" class="cls-1" x="67.58" y="154.02" width="12.47" height="12.47"/><rect id="Rectangle_18" data-name="Rectangle 18" class="cls-1" x="67.58" y="182.99" width="12.47" height="12.47"/><rect id="Rectangle_19" data-name="Rectangle 19" class="cls-1" x="67.58" y="211.96" width="12.47" height="12.47"/><rect id="Rectangle_20" data-name="Rectangle 20" class="cls-1" x="67.58" y="240.93" width="12.47" height="12.47"/><rect id="Rectangle_21" data-name="Rectangle 21" class="cls-1" x="385.24" y="154.2" width="12.47" height="12.47"/><rect id="Rectangle_22" data-name="Rectangle 22" class="cls-1" x="337.63" y="184.96" width="12.47" height="12.47"/><rect id="Rectangle_23" data-name="Rectangle 23" class="cls-1" x="385.24" y="184.96" width="12.47" height="12.47"/><rect id="Rectangle_24" data-name="Rectangle 24" class="cls-1" x="337.63" y="215.72" width="12.47" height="12.47"/><rect id="Rectangle_26" data-name="Rectangle 26" class="cls-1" x="337.63" y="246.48" width="12.47" height="12.47"/><rect id="Rectangle_27" data-name="Rectangle 27" class="cls-1" x="385.24" y="246.48" width="12.47" height="12.47"/><rect id="Rectangle_28" data-name="Rectangle 28" class="cls-1" x="337.63" y="277.24" width="12.47" height="12.47"/><rect id="Rectangle_29" data-name="Rectangle 29" class="cls-1" x="385.24" y="277.24" width="12.47" height="12.47"/><path id="Path_20" data-name="Path 20" class="cls-1" d="M337.63,316.05v-8H350.1v6.9Z"/><path id="Path_21" data-name="Path 21" class="cls-1" d="M5.29,130.84V138H48v-7.13Zm4.25,6.69H6v-6.24h3.5Zm4.25,0h-3.5v-6.24h3.5Zm4.24,0h-3.5v-6.24H18Zm4.25,0h-3.5v-6.24h3.5Zm4.25,0H23v-6.24h3.5Zm4.25,0h-3.5v-6.24h3.5Zm4.25,0h-3.5v-6.24H35Zm4.24,0H35.76v-6.24h3.5Zm4.25,0H40v-6.24h3.49Zm4.24,0h-3.5v-6.24h3.5Z"/><path id="Path_22" data-name="Path 22" class="cls-1" d="M5.29,151.61v7.14H48v-7.14Zm4.25,6.69H6v-6.24h3.5Zm4.25,0h-3.5v-6.24h3.5Zm4.24,0h-3.5v-6.24H18Zm4.25,0h-3.5v-6.24h3.5Zm4.25,0H23v-6.24h3.5Zm4.25,0h-3.5v-6.24h3.5Zm4.25,0h-3.5v-6.24H35Zm4.24,0H35.76v-6.24h3.5Zm4.25,0H40v-6.24h3.49Zm4.24,0h-3.5v-6.24h3.5Z"/><path id="Path_23" data-name="Path 23" class="cls-1" d="M5.29,172.38v7.13H48v-7.13Zm4.25,6.68H6v-6.23h3.5Zm4.25,0h-3.5v-6.23h3.5Zm4.24,0h-3.5v-6.23H18Zm4.25,0h-3.5v-6.23h3.5Zm4.25,0H23v-6.23h3.5Zm4.25,0h-3.5v-6.23h3.5Zm4.25,0h-3.5v-6.23H35Zm4.24,0H35.76v-6.23h3.5Zm4.25,0H40v-6.23h3.49Zm4.24,0h-3.5v-6.23h3.5Z"/><path id="Path_24" data-name="Path 24" class="cls-1" d="M5.29,193.15v7.13H48v-7.13Zm4.25,6.68H6V193.6h3.5Zm4.25,0h-3.5V193.6h3.5Zm4.24,0h-3.5V193.6H18Zm4.25,0h-3.5V193.6h3.5Zm4.25,0H23V193.6h3.5Zm4.25,0h-3.5V193.6h3.5Zm4.25,0h-3.5V193.6H35Zm4.24,0H35.76V193.6h3.5Zm4.25,0H40V193.6h3.49Zm4.24,0h-3.5V193.6h3.5Z"/><path id="Path_25" data-name="Path 25" class="cls-1" d="M5.47,213.91c.17.68.36,1.35.57,2v-1.55h3.5v6.24H7.68c.06.14.11.3.17.44H48v-7.13Zm8.32,6.69h-3.5v-6.24h3.5Zm4.24,0h-3.5v-6.24H18Zm4.25,0h-3.5v-6.24h3.5Zm4.25,0H23v-6.24h3.5Zm4.25,0h-3.5v-6.24h3.5Zm4.25,0h-3.5v-6.24H35Zm4.24,0H35.76v-6.24h3.5Zm4.25,0H40v-6.24h3.49Zm4.24,0h-3.5v-6.24h3.5Z"/><path id="Path_26" data-name="Path 26" class="cls-1" d="M15.38,234.69l.33.44H18v3l.75.9v-3.87h3.5v6.24H20.86c.14.14.27.3.43.44H48v-7.15Zm11.13,6.68H23v-6.24h3.5Zm4.25,0h-3.5v-6.24h3.5Zm4.25,0h-3.5v-6.24H35Zm4.25,0h-3.5v-6.24h3.5Zm4.24,0H40v-6.24h3.5Zm4.25,0h-3.5v-6.24h3.5Z"/><path id="Path_27" data-name="Path 27" class="cls-1" d="M38.79,255.45c.4.23.81.45,1.22.66v-.21H43.5v2l.74.35V255.9h3.5v3.79l.21.08v-4.32Z"/><path id="Path_28" data-name="Path 28" class="cls-1" d="M273.06,210c.09.28.16.56.24.84h0c-.07-.3-.15-.58-.24-.86ZM63.35,80.77v1.88H83V80.77ZM273.06,210c.08.28.16.56.23.84h0a7.74,7.74,0,0,0-.23-.86Zm0,0c.09.28.16.56.24.84h0c-.07-.3-.15-.58-.24-.86Z"/><circle id="Ellipse_2" data-name="Ellipse 2" class="cls-1" cx="397.5" cy="51.77" r="10.47"/><circle id="Ellipse_3" data-name="Ellipse 3" class="cls-1" cx="443.97" cy="77.42" r="8.23"/><circle id="Ellipse_4" data-name="Ellipse 4" class="cls-1" cx="467" cy="37.74" r="2.9"/><path id="Path_43" data-name="Path 43" class="cls-2" d="M326.05,243.86a5.56,5.56,0,0,1-2.27,2.59"/><path id="Path_44" data-name="Path 44" class="cls-2" d="M395.59,319.36a16.17,16.17,0,0,0,4.36,5.77"/><path id="Path_45" data-name="Path 45" class="cls-2" d="M390.63,324.82a9,9,0,0,0,.6,2.61,3,3,0,0,0,1.9,1.76"/><path id="Path_65" data-name="Path 65" class="cls-3" d="M146.76,259.5c4.66,2.27,10.39,3.32,16.22,3.66,0,.23-.07.45-.11.67a20,20,0,0,1-1.69,5.28h.35c-7.89,11.88-1.33,37-1.33,37s1.71,9.37,4.64,19.69c1.63,5.72.74,8.93-.37,10.65v0l-.21.35v-.17c-6.73,7.92-2.2,11.95-2.2,11.95l3.74,4.69-.32,8.16,2.44.48-.57-6.71,2.29,2.87.48,6.72s11.24,1.09,18.7,2.42,8.56-2.28,5.25-3.36-6.6-7.68-6.6-7.68a7.94,7.94,0,0,0-1.93-.43c-.06-.12-.13-.25-.19-.39-2.47-5.2-5.82-14.78-5.82-14.78v-.08c-.36-4-.92-7.91-1.54-11.85-1.13-7.07.93-24.45.93-24.45s.74-21.14,2.32-25.94a39,39,0,0,0,1.43-7.49c.05-.37.08-.73.11-1.08,12.71.1,27.6-.24,34.4-2.12a47.9,47.9,0,0,1,5.95-1.22c-.06.35-.13.72-.2,1.11a84.64,84.64,0,0,1-2.33,9.12c-2.94,9.36-1.72,25.1,2.32,36.38,2.94,8.23,2.11,19.37,1.45,24.77,0,.22-.06.44-.08.64l-.08-.07a4.52,4.52,0,0,1-1.48,3.29,7.56,7.56,0,0,0-2.7,7,9.5,9.5,0,0,0,4.12,6.25v10.57h2.32V355c7.58-1.8,16.62,12,16.62,12s13,.6,23.1.36,3.3-4.68,3.3-4.68C258.1,363,253,356.55,253,356.55l-.14.93-.09-.08c-4.26-4-9.68-13.95-9.68-13.95s-.37-5-1.71-7.44-.82-27.64-.82-27.64l-.11-41.11v-1.09c2.42.19,4.15.32,4.76.05,1.94-.84.36-13.93-1.34-17.17-1.07-2-5.14-15.55-8-25.44a27.39,27.39,0,0,0,2.53,3.34c-1.84-2.42-11.85-50.55-11.85-50.55l-.34-6.29a34.22,34.22,0,0,0,3.87-6.58c3.95-.44,13.8-2.17,19.18-8.5,1.25-1.45,1.52-2.51,1.12-3.23l30.29-6.25,5.87-4.93L268.32,144c3.58-6.7-.81-9.14-5.1-10l1-3.18a1.52,1.52,0,0,0-.22-1.34h0l0,0-.07-.09-.12-.12-.08-.07a.91.91,0,0,0-.16-.11l-.08-.05a2.18,2.18,0,0,0-.27-.11,1.56,1.56,0,0,0-2,1l-1.2,3.7-.51,0h0l-22.27-1s-3.54-5.28-4.89-3.73-3.3-.23-3.3-.23,0-11.29-2.93-10.81a3.68,3.68,0,0,1-3-.82l-.07-1.22s-.48-5.77-1-10.69c-.44-4.5-8.71-10.49-10.16-11.5l-9.42-13.15,0,.07-.32-.44h0l0-.27c.05-.23.08-.45.13-.68a18.65,18.65,0,0,0,5.56.85,18,18,0,0,0,18.15-17.83h0a17.62,17.62,0,0,0-1.3-6.65c0-.09-.08-.17-.11-.26a5.12,5.12,0,0,0,3-.3,2.05,2.05,0,0,0,.59-.38c2.52-2.39-3.35-8.33-4.4-10.46-.88-1.75-1.32-3.71-2.36-5.37a9.8,9.8,0,0,0-2-2.25c.05.09.12.18.18.27a.74.74,0,0,0,.06.11,15.17,15.17,0,0,0-5.33-2.95c-7.19-2.42-22.39-6-26.92,0a14,14,0,0,1-2.89,3.39,22.13,22.13,0,0,1-3.11,1.38c-2.9,1.33-4.74,4.24-5.74,7.26s-1.27,6.16-2,9.2a67.33,67.33,0,0,1-4.15,11.35c-1.91,4.36-3.93,8.89-7.6,12-5,4.22-6.15,10.17-10.77,14.79-5.52,5.49-5.33,14.52-2.5,21.73a5.88,5.88,0,0,1,.65,2.93,5.63,5.63,0,0,1-1.62,2.72l-3,3.34A16.84,16.84,0,0,0,156,122.53a20.49,20.49,0,0,0,2.08-1.21l0,.83c-.23,7.26-.09,12.95-.09,12.95,3.79,6.12-6.11,55.36-6.11,55.36C149.56,199.93,146.76,259.5,146.76,259.5Zm80.39-110.41c-.39,0-.79,0-1.2-.06v-.12Zm10.35,1.21-.9.89c-1.89.31-3.2.59-3.2.59l-1.87.43a5.26,5.26,0,0,0-.94-2.47,1.5,1.5,0,0,0-.54-.26C232.49,149.78,235,150.05,237.5,150.3Z"/><path id="Path_66" data-name="Path 66" class="cls-4" d="M168.17,353.39l.72,8.5-2.39-.48.36-9.21Z"/><path id="Path_67" data-name="Path 67" class="cls-5" d="M222.74,313.06c2.9,8.22,2.07,19.29,1.42,24.68-.24,2-.48,3.2-.48,3.2s4.3,9.82,4.66,10.17S241,359,241,359l8.62,5s8.73-3.83,4.54-5.14a6.26,6.26,0,0,1-2.25-1.55c-4.18-4-9.48-13.9-9.48-13.9s-.36-5-1.67-7.41S240,308.5,240,308.5l-.1-41V262.2l-16.4.12a37.83,37.83,0,0,1-.71,5.4,83.14,83.14,0,0,1-2.28,9.08C217.6,286.13,218.79,301.81,222.74,313.06Z"/><path id="Path_68" data-name="Path 68" class="cls-2" d="M223.7,340.94s4.31,9.81,4.67,10.16,12.68,7.9,12.68,7.9l8.62,5s8.74-3.83,4.55-5.15a6.27,6.27,0,0,1-2.26-1.54l-.37,2.62-2.88-.12-24.55-22.12C223.92,339.72,223.7,340.94,223.7,340.94Z"/><path id="Path_69" data-name="Path 69" class="cls-4" d="M224,338.3l24.69,22.27,2.87.12.6-4.19s5,6.46,16.16,6.1c0,0,6.7,4.43-3.24,4.67s-22.61-.36-22.61-.36-8.86-13.76-16.28-12v10.42h-2.27V354.82a9.46,9.46,0,0,1-4-6.23,7.64,7.64,0,0,1,2.65-7A4.54,4.54,0,0,0,224,338.3Z"/><path id="Path_70" data-name="Path 70" class="cls-5" d="M165.9,325.86c1.58,5.69.72,8.9-.37,10.62v0a19.74,19.74,0,0,0-2.87,7l-.1.54,11.25,16.4,6.08,2.4s9.82-3.35,8-4.31c-.45-.24-1.15-1.47-1.94-3.2-2.42-5.18-5.71-14.75-5.71-14.75v-.08c-.34-3.95-.9-7.89-1.51-11.81-1.1-7.05.92-24.37.92-24.37s.72-21.06,2.28-25.85a40.2,40.2,0,0,0,1.39-7.46c.33-3,.4-5.47.4-5.47s-6.46-9-18.31.72A13.2,13.2,0,0,0,163,269c-8.18,11.64-1.6,37.27-1.6,37.27S163,315.57,165.9,325.86Z"/><path id="Path_71" data-name="Path 71" class="cls-2" d="M162.55,344.05l11.24,16.4,6.1,2.4s9.81-3.35,8-4.31c-.45-.24-1.15-1.47-1.94-3.2-4.16,0-6.29,3.92-6.29,3.92l-5.27-.84s-6.94-13.64-8.5-14.47-.24-6.23-.24-6.23v-1.38l-.13.16v0a19.69,19.69,0,0,0-2.86,7Z"/><path id="Path_72" data-name="Path 72" class="cls-4" d="M179.3,359.61s3-5.5,8.71-3.47c0,0,3.24,6.58,6.47,7.65s2.16,4.68-5.15,3.36S171,364.78,171,364.78l-.48-6.7-7.42-9.46s-4.43-4,2.15-11.9v1.37s-1.31,5.38.24,6.23,8.5,14.47,8.5,14.47Z"/><path id="Path_73" data-name="Path 73" class="cls-2" d="M223.46,262.31a37.65,37.65,0,0,1-.71,5.4,76.57,76.57,0,0,1,17.12-.18v-5.32Z"/><path id="Path_74" data-name="Path 74" class="cls-2" d="M162.31,270.45s9.6.48,21,.56c.33-3,.4-5.47.4-5.47s-6.46-9-18.31.72a13.2,13.2,0,0,0-2.48,2.69A14,14,0,0,1,162.31,270.45Z"/><path id="Path_75" data-name="Path 75" class="cls-4" d="M162.31,269.37s42,2,54.81-1.55,25.49-.48,27.4-1.32.36-13.88-1.31-17.11-10.89-35.9-10.89-35.9l-8.86-46.2-9.33-2.58-.66-.18L197.2,160l-11.92-3.29s-23.67,92.52-21.66,99.34a17.45,17.45,0,0,1,.35,8A20.07,20.07,0,0,1,162.31,269.37Z"/><path id="Path_76" data-name="Path 76" class="cls-6" d="M254.34,135.7s8.37,9,2,14-10.53.48-10.53.48Z"/><path id="Path_77" data-name="Path 77" class="cls-2" d="M254.34,135.7s8.37,9,2,14-10.53.48-10.53.48Z"/><path id="Path_78" data-name="Path 78" class="cls-5" d="M186.54,76.58s1,.93,2.46,2.31c2.11,2,5.23,4.84,8,7.26,3.84,3.34,7,5.81,5.87,3.7s-.92-5.73-.35-9.15c0-.22.07-.45.12-.68a61.1,61.1,0,0,1,1.85-7.4s-6.2-8-9.63-11.17c-1.28-1.18-2.17-1.69-2.22-.86a29.31,29.31,0,0,1-1.93,6.22l-.1.25c-.7,1.78-1.49,3.64-2.18,5.24C187.37,74.75,186.54,76.58,186.54,76.58Z"/><path id="Path_79" data-name="Path 79" class="cls-2" d="M190.6,67.08a17.8,17.8,0,0,0,11.92,13.64,60.24,60.24,0,0,1,2-8.08s-11.67-15.08-11.85-12A29.32,29.32,0,0,1,190.6,67.08Z"/><path id="Path_80" data-name="Path 80" class="cls-2" d="M203.68,84.74l-1.51-2.12s-1,6.1-4.68,3.41-3.87,20.25-3.87,20.25l3.95,59.06,28.56-1.7-.81-28.56-3.23-14.36-8-20.92-4.76-6.91Z"/><path id="Path_81" data-name="Path 81" class="cls-4" d="M193.63,106.64,197.2,160l.38,5.66,15.92-1,.63,0,12-.71-.81-28.56-3.24-14.36-8-20.92-4.76-6.9-5.66-8.18-1.51-2.12s-1,6.1-4.68,3.39l-.07-.06h0C193.81,84,193.63,106.64,193.63,106.64Z"/><path id="Path_82" data-name="Path 82" class="cls-7" d="M221.67,116.07s1.45,3,4.31,2.51,2.87,10.77,2.87,10.77,1.93,1.79,3.23.24,4.79,3.71,4.79,3.71l21.78,1s-9.68,4.43-7.78,17.83c0,0-32.92-2-34-5.15S221.67,116.07,221.67,116.07Z"/><path id="Path_83" data-name="Path 83" class="cls-8" d="M221.67,116.07s1.45,3,4.31,2.51,2.87,10.77,2.87,10.77,1.93,1.79,3.23.24,4.79,3.71,4.79,3.71l21.78,1s-9.68,4.43-7.78,17.83c0,0-32.92-2-34-5.15S221.67,116.07,221.67,116.07Z"/><path id="Path_84" data-name="Path 84" class="cls-7" d="M285,141.32l-5.75,4.91L232,156.16l5.87-6Z"/><path id="Path_85" data-name="Path 85" class="cls-7" d="M203.59,86.63c.78,1.17,3,7.33,4.91,12.7,1.56,4.46,2.87,8.36,2.87,8.36s3,19.85,4.6,23.46.72,17.6.72,17.6l5.81,34.58s2.63,17.84,6.7,28.49c4,10.49,8.47,15.4,8.61,15.55C236,225,226.19,177,226.19,177L223,116.56s-.48-5.75-1-10.65-10.16-11.62-10.16-11.62L202.47,81C201.53,82.28,202.16,84.47,203.59,86.63Z"/><path id="Path_87" data-name="Path 87" class="cls-2" d="M163.62,256.09a17.44,17.44,0,0,1,.35,8c15,1.07,31.13-3,31.13-3,3,2.75,10.89,6.82,10.89,6.82l4.31-53.38c2.75-7.18,3.82-44.88,3.82-44.88s-.24-2-.63-4.93a.55.55,0,0,0,0-.22c-1.08-8.25-3.2-23.75-4.25-25.84-1.45-2.87,4.42-10.53,4.42-10.53L211,105.41l-.33-2.74c-5.62-2.52-9.93-10.54-9.93-10.54l-3.3-5.81h0c-3.6-2.31-3.79,20.33-3.79,20.33l3.58,53.4-11.92-3.28S161.61,249.27,163.62,256.09Z"/><path id="Path_88" data-name="Path 88" class="cls-7" d="M148.19,259.8c16.39,8.14,46.19.6,46.19.6,3,2.75,10.89,6.82,10.89,6.82l4.31-53.38c2.75-7.18,3.83-44.88,3.83-44.88s-3.47-28.12-4.91-31a4.71,4.71,0,0,1,.28-3.42,43.37,43.37,0,0,0,2.63-20.08l-1.14-9.79-.33-2.74C204.32,99.43,200,91.41,200,91.41l-3-5.25-5.52-9.68-2.61-4.58-.44.4-3.39,3.07s-1.45,1.19-3.59,3c-4.7,4-12.81,10.92-17,15.18-3.68,3.76-4.85,18.35-5.18,29.34-.23,7.24-.09,12.91-.09,12.91,3.71,6.1-6,55.19-6,55.19C150.93,200.44,148.19,259.8,148.19,259.8Z"/><path id="Path_89" data-name="Path 89" class="cls-8" d="M179.66,91.28s11.25,21.42,9.93,29.56-5,17.35-3.23,19.51a6.57,6.57,0,0,0,5.26,2.64c1.8.13,6.59,3.48,6.59,3.83s4.43.36,8.38,2a52.61,52.61,0,0,0,9.81,2.63s11.37-.36,12.44.72,2.16,7.54-.12,12.68-4.78,9-6.7,9.68-14-3.34-23.81-4.3-20.47-8.74-20.47-8.74S166,157.34,164,150.28s2.51-45.84,2.51-45.84S170,86.39,179.66,91.28Z"/><path id="Path_90" data-name="Path 90" class="cls-8" d="M181.09,89.5s11.25,21.42,9.94,29.56-5,17.35-3.23,19.5a6.61,6.61,0,0,0,5.28,2.64c1.8.12,6.58,3.47,6.58,3.83s4.42.35,8.37,2a52.17,52.17,0,0,0,9.82,2.64s11.37-.37,12.45.71,2.15,7.54-.13,12.69-4.78,9-6.7,9.68-14-3.35-23.81-4.31-20.47-8.73-20.47-8.73-11.73-4.19-13.76-11.25,2.51-45.84,2.51-45.84S171.4,84.59,181.09,89.5Z"/><path id="Path_91" data-name="Path 91" class="cls-7" d="M180,90.22s11.25,21.42,9.93,29.56-5,17.35-3.23,19.51a6.62,6.62,0,0,0,5.26,2.63c1.8.12,6.59,3.47,6.59,3.83s4.43.36,8.38,2a51.87,51.87,0,0,0,9.81,2.64s11.37-.36,12.44.71,2.16,7.54-.11,12.69-4.79,9-6.7,9.68-14-3.35-23.82-4.31-20.47-8.71-20.47-8.71-11.72-4.19-13.76-11.25,2.52-45.85,2.52-45.85S170.33,85.31,180,90.22Z"/><path id="Path_92" data-name="Path 92" class="cls-2" d="M180.25,147.66s9-1.8,5.87,1.2-3.11,5.63-6.94,5.51S180.25,147.66,180.25,147.66Z"/><path id="Path_93" data-name="Path 93" class="cls-2" d="M165.06,212.17s4.07,2.75-3.71,9.1S165.06,212.17,165.06,212.17Z"/><path id="Path_94" data-name="Path 94" class="cls-2" d="M172.84,234.79c0,.36,1.45,13.16-4,16.39S172.84,234.79,172.84,234.79Z"/><path id="Path_95" data-name="Path 95" class="cls-5" d="M258.29,134.25c4.36.14,13.72,1.45,8.85,10.54-4.3,8-11.52,2.66-15.56-1.41A15.32,15.32,0,0,1,258.29,134.25Z"/><path id="Path_97" data-name="Path 97" class="cls-5" d="M251.5,143.31l-.18-.18Z"/><path id="Path_98" data-name="Path 98" class="cls-2" d="M181.46,78.74c4.6,3.15,8.47,5.81,9.2,6.36,2.07,1.53,6,10.5,8.53,15.08,2,3.69,8.59,4.64,11.07,4.87l-.33-2.75C204.32,99.79,200,91.77,200,91.77l-11.14-19.5-3.82,3.47S183.61,76.92,181.46,78.74Z"/><path id="Path_99" data-name="Path 99" class="cls-9" d="M181.46,78.39c4.6,3.14,8.47,5.81,9.2,6.35,2.07,1.53,6,10.5,8.53,15.08,2,3.69,8.59,4.64,11.07,4.87l-.33-2.74C204.31,99.43,200,91.41,200,91.41l-11.14-19.5L185,75.38S183.61,76.56,181.46,78.39Z"/><path id="Path_100" data-name="Path 100" class="cls-5" d="M190.31,63.11a17.78,17.78,0,1,0,17.78-17.77h0A17.71,17.71,0,0,0,190.31,63Z"/><path id="Path_101" data-name="Path 101" class="cls-2" d="M159.28,122.91a15.72,15.72,0,0,0,5.72-6.17c1-2,1.67-4.26,3.39-5.66,1.53-1.26,3.61-1.56,5.51-2.13,6.3-1.86,11.59-7.62,11.8-14.19.09-3.09-.88-6.18-.44-9.24a10.23,10.23,0,0,1,2-4.77A16,16,0,0,1,189,78.89c.84-.79,1.71-1.56,2.48-2.42a9.25,9.25,0,0,0,1.27-1.71,9,9,0,0,0,.69-1.59c1.17-3.67.1-8,1.42-11.73l.07-.2c.49-1.32,1.51-2.63,2.9-2.74s2.62,1.06,4,1.59c2.8,1.09,5.84-.76,8.18-2.66s5-4.06,8-3.64c2,.29,3.53,1.63,5.32,2.32a8.34,8.34,0,0,0,1.27.37,17.77,17.77,0,0,0-33.88,10.33l-.1.25c-.7,1.78-1.48,3.64-2.18,5.24L185,75.37s-1.46,1.18-3.6,3c-4.7,4-12.8,10.92-17,15.18C160.78,97.32,159.62,111.92,159.28,122.91Z"/><path id="Path_102" data-name="Path 102" class="cls-10" d="M223.52,45.19c-.85-1.75-1.28-3.7-2.3-5.35A12.54,12.54,0,0,0,214.39,35c-7-2.42-21.93-6-26.37,0a13.55,13.55,0,0,1-2.81,3.36,20.31,20.31,0,0,1-3.05,1.37c-2.84,1.33-4.65,4.23-5.62,7.21s-1.25,6.14-1.93,9.2a68.85,68.85,0,0,1-4.08,11.32c-1.86,4.35-3.84,8.86-7.44,11.94-4.91,4.2-6,10.13-10.55,14.73-5.4,5.48-5.22,14.5-2.42,21.66a6,6,0,0,1,.64,2.9,5.66,5.66,0,0,1-1.6,2.7l-2.94,3.33a16.56,16.56,0,0,0,18.11-8.36c1-2,1.67-4.25,3.39-5.66,1.54-1.26,3.61-1.56,5.52-2.13,6.29-1.86,11.58-7.62,11.78-14.19.1-3.09-.87-6.18-.43-9.23a10.27,10.27,0,0,1,2-4.77c1.65-2.15,4.14-3.62,5.48-6,2.28-4,.55-9.2,2.19-13.53.48-1.31,1.51-2.63,2.9-2.74s2.62,1.07,4,1.6c2.81,1.09,5.85-.77,8.18-2.67s5-4.06,8-3.63c2,.28,3.53,1.62,5.32,2.32,1.35.52,4.07,1,5.25-.16C230.31,53.23,224.54,47.31,223.52,45.19Z"/><path id="Path_103" data-name="Path 103" class="cls-2" d="M162.62,114.35c1-2,1.67-4.26,3.39-5.67,1.53-1.25,3.61-1.55,5.51-2.12,6.3-1.86,11.59-7.62,11.79-14.19.1-3.09-.87-6.19-.43-9.24a10.11,10.11,0,0,1,2-4.77c1.65-2.15,4.14-3.62,5.48-6,2.27-4,.54-9.2,2.18-13.52.48-1.32,1.52-2.64,2.9-2.74s2.62,1.06,4,1.59c2.81,1.09,5.84-.76,8.19-2.66s5-4.06,8-3.64c2,.28,3.53,1.62,5.32,2.32,1.35.52,4.07,1,5.25-.15,2.47-2.38-3.28-8.3-4.31-10.42-.86-1.76-1.29-3.7-2.31-5.36l-.18-.26a9.17,9.17,0,0,1,2,2.24c1,1.65,1.46,3.6,2.3,5.35,1,2.12,6.78,8,4.32,10.42-1.18,1.14-3.88.67-5.25.15-1.81-.7-3.38-2-5.32-2.32-3-.42-5.63,1.75-8,3.65s-5.38,3.75-8.19,2.65c-1.34-.52-2.52-1.69-4-1.59s-2.42,1.42-2.9,2.74c-1.63,4.3.09,9.52-2.18,13.52-1.34,2.37-3.83,3.83-5.48,6a10.18,10.18,0,0,0-2,4.77c-.44,3,.53,6.14.44,9.23-.2,6.57-5.49,12.33-11.79,14.19-1.91.57-4,.87-5.51,2.13-1.72,1.41-2.39,3.68-3.39,5.66a16.57,16.57,0,0,1-18.12,8.36l1.39-1.57A16.67,16.67,0,0,0,162.62,114.35Z"/><path id="Path_104" data-name="Path 104" class="cls-2" d="M204,87c.78,1.17,3,7.34,4.91,12.69,1.76-.68,3.35-5,3.35-5l-9.36-13.32C201.89,82.64,202.52,84.83,204,87Z"/><path id="Path_105" data-name="Path 105" class="cls-9" d="M203.59,86.63c.78,1.17,3,7.33,4.91,12.7,1.76-.68,3.35-5,3.35-5L202.49,81C201.53,82.28,202.16,84.47,203.59,86.63Z"/><path id="Path_106" data-name="Path 106" class="cls-11" d="M258,147.87l5.2-16.35a1.55,1.55,0,0,0-1-1.94h0a1.53,1.53,0,0,0-1.93,1h0v0L255.12,147l.51,3.42Z"/><path id="Path_107" data-name="Path 107" class="cls-12" d="M262.74,130.06h0a1.53,1.53,0,0,0-1.93,1h0l-5.19,16.35L256,150l-.38.4-.5-3.42,5.19-16.35a1.52,1.52,0,0,1,1.92-1h0a1.55,1.55,0,0,1,.79.59A1.14,1.14,0,0,0,262.74,130.06Z"/><path id="Path_108" data-name="Path 108" class="cls-13" d="M258,147.87l-2.92-.93.43,2.81.09.62.85-.89Z"/><path id="Path_109" data-name="Path 109" class="cls-14" d="M256.49,149.48a.58.58,0,0,0-.19-.16.28.28,0,0,0-.28,0,.86.86,0,0,0-.1.16.51.51,0,0,1-.37.25l.09.62Z"/><path id="Path_110" data-name="Path 110" class="cls-5" d="M263.27,137.31s-10.42-.06-8,4.36a9.39,9.39,0,0,0,6.29,5Z"/><path id="Path_111" data-name="Path 111" class="cls-15" d="M45.23,306.4s3.45,4.52-1.59,11.34-9.2,12.58-7.53,16.82c0,0,7.61-12.66,13.81-12.84S52.05,314,45.23,306.4Z"/><path id="Path_112" data-name="Path 112" class="cls-2" d="M45.23,306.4a5.9,5.9,0,0,1,.71,1.42c6,7.1,9.27,13.74,3.45,13.9-5.41.16-11.91,9.84-13.47,12.29,0,.18.12.37.19.55,0,0,7.61-12.66,13.81-12.84S52.05,314,45.23,306.4Z"/><path id="Path_113" data-name="Path 113" class="cls-16" d="M51.65,312.16c0,1.59-.18,2.88-.4,2.88s-.4-1.29-.4-2.88.22-.84.44-.84S51.65,310.56,51.65,312.16Z"/><path id="Path_114" data-name="Path 114" class="cls-16" d="M53.85,314.06c-1.39.76-2.61,1.22-2.71,1s.93-1,2.33-1.72.85-.21,1,0S55.25,313.3,53.85,314.06Z"/><path id="Path_115" data-name="Path 115" class="cls-15" d="M27,306.4s-3.45,4.52,1.59,11.34,9.2,12.58,7.53,16.82c0,0-7.61-12.66-13.82-12.84S20.17,314,27,306.4Z"/><path id="Path_116" data-name="Path 116" class="cls-2" d="M27,306.4a5.9,5.9,0,0,0-.71,1.42c-6,7.1-9.27,13.74-3.45,13.9,5.41.16,11.91,9.84,13.47,12.29,0,.18-.12.37-.19.55,0,0-7.61-12.66-13.82-12.84S20.17,314,27,306.4Z"/><path id="Path_117" data-name="Path 117" class="cls-16" d="M20.57,312.16c0,1.59.18,2.88.4,2.88s.4-1.29.4-2.88-.23-.84-.44-.84S20.57,310.56,20.57,312.16Z"/><path id="Path_118" data-name="Path 118" class="cls-16" d="M18.36,314.06c1.4.76,2.61,1.22,2.72,1s-.94-1-2.34-1.72-.84-.21-1,0S17,313.3,18.36,314.06Z"/><ellipse id="Ellipse_12" data-name="Ellipse 12" class="cls-1" cx="36.11" cy="363.58" rx="36.11" ry="5.54"/><path id="Path_119" data-name="Path 119" class="cls-17" d="M54.69,328.47l-.17,1.41-.25,2-.1.82-.24,2-.1.83-.24,2-2.76,22.65c-.25,2-3.56,3.6-7.54,3.6H28.93c-4,0-7.26-1.57-7.54-3.6l-2.76-22.65-.25-2-.1-.83-.24-2-.1-.82-.24-2-.18-1.41c-.14-1.14,1.65-2.11,3.91-2.11H50.79C53,326.37,54.83,327.33,54.69,328.47Z"/><path id="Path_120" data-name="Path 120" class="cls-18" d="M54.52,329.89l-.24,2H17.94l-.24-2Z"/><path id="Path_121" data-name="Path 121" class="cls-18" d="M54.18,332.71l-.24,2H18.29l-.25-2Z"/><path id="Path_122" data-name="Path 122" class="cls-18" d="M53.83,335.54l-.24,2h-35l-.25-2Z"/><g id="Group_3" data-name="Group 3"><path id="Path_59" data-name="Path 59" class="cls-19" d="M246.42,161.53v-15.7h2.14v-4.7H233.22v4.7h2.14v15.7a15.58,15.58,0,1,0,11.06,0Z"/><rect id="Rectangle_30" data-name="Rectangle 30" class="cls-2" x="235.36" y="145.78" width="11.06" height="0.21"/><path id="Path_61" data-name="Path 61" class="cls-2" d="M232.17,175.7s9.39-.17,14.08-2.51,7.38-.26,7.12,1.17-1.59,4.19-7,4.52S232.17,175.7,232.17,175.7Z"/><path id="Path_62" data-name="Path 62" class="cls-15" d="M228.15,174.2s-1,13.91,12.15,14.16,13.07-14,13.07-14-4.84,5.28-16.34.93C237,175.28,231.08,173.69,228.15,174.2Z"/><path id="Path_63" data-name="Path 63" class="cls-2" d="M253.32,174.41c-.26,3.2-2,13.23-13,13-10.83-.2-12.06-9.68-12.16-13-.06,1.78,0,13.7,12.16,13.93,13.16.26,13.07-14,13.07-14Z"/><circle id="Ellipse_6" data-name="Ellipse 6" class="cls-20" cx="240.38" cy="168.19" r="1.71"/><circle id="Ellipse_7" data-name="Ellipse 7" class="cls-20" cx="241.36" cy="161.37" r="1.05"/><circle id="Ellipse_8" data-name="Ellipse 8" class="cls-20" cx="239" cy="155.27" r="1.05"/><path id="Path_64" data-name="Path 64" class="cls-21" d="M230,169.51c-.09.72-.07,1.62.57,1.94-.57-.24,1.66-3.46,1.37-4.11C231.2,166,230,168.84,230,169.51Z"/><circle id="Ellipse_9" data-name="Ellipse 9" class="cls-20" cx="238.15" cy="136.29" r="1.71"/><circle id="Ellipse_10" data-name="Ellipse 10" class="cls-20" cx="243.27" cy="133.37" r="1.27"/><circle id="Ellipse_11" data-name="Ellipse 11" class="cls-20" cx="239.61" cy="129.95" r="0.66"/></g><path id="Path_86" data-name="Path 86" class="cls-5" d="M228,164.3s13.76-.6,20.46-8.62S233,152.45,233,152.45l-5.74,1.31Z"/></g></g></g></svg>