<svg xmlns="http://www.w3.org/2000/svg" viewBox="0 0 308 303.28"><defs><style>.cls-1{fill:#2f2e41;}.cls-2{fill:#ffb8b8;}.cls-3{fill:#a0616a;}.cls-4{fill:#6c63ff;}.cls-5{fill:#3f3d56;}</style></defs><g id="Layer_2" data-name="Layer 2"><g id="Layer_1-2" data-name="Layer 1"><g id="Group_16" data-name="Group 16"><path id="Path_243-2" data-name="Path 243-2" class="cls-1" d="M89.22,177.13C75.47,168.18,68.63,147.39,72,128.37S88.06,93,103.26,85.9a49,49,0,0,1,46.37,3.3c14,8.53,33.67,13.2,40.29,30.26,5.09,13.11-1.36,39.73-8.21,52.47-5.92,11-17.17,16-27.74,18.23a83.33,83.33,0,0,1-67.4-15.56Z"/><path id="Path_244-2" data-name="Path 244-2" class="cls-2" d="M82.05,278.15l-11,19-1.45,2.5-2.12,3.68H35.09l2.19-3.68,5.66-9.54,13.2-22.27,14.94,6Z"/><path id="Path_245-2" data-name="Path 245-2" class="cls-1" d="M32.66,303.28l-5.92-3.68-.73-.46,37.14-67.69a25.25,25.25,0,0,1,15.17-12.17,24.94,24.94,0,0,1,12.46-.46,24.65,24.65,0,0,1,6.87,2.57,25.11,25.11,0,0,1,2.56,1.62,24.61,24.61,0,0,1,7.54,8.49,25.39,25.39,0,0,1-.78,25.64L92.65,280,80.41,299.6l-2.3,3.68Z"/><circle id="Ellipse_53-2" data-name="Ellipse 53-2" class="cls-3" cx="128.1" cy="156.02" r="45.15"/><path id="Path_246-2" data-name="Path 246-2" class="cls-4" d="M173.42,303.28H71.94L72.4,302q-.39-1.19-.72-2.37c-.24-.82-.44-1.67-.62-2.5a55.48,55.48,0,0,1,0-23.34c5.6-27.53,28-49.9,28-49.9.39-.29.77-.57,1.16-.84A50.71,50.71,0,0,1,111,217c16.62-6.9,34-4.12,45.75-.55A92.31,92.31,0,0,1,168.64,221c1.36.65,2.1,1.05,2.1,1.05l1.15,35.31,1.4,42.27Z"/><path id="Path_247-2" data-name="Path 247-2" class="cls-1" d="M220.36,299.6l-7.75-39.44-7.83-39.78a8.31,8.31,0,0,0-6.71-6.56L181.67,211l-15.26-2.63a8.19,8.19,0,0,0-7.92,3,8,8,0,0,0-1.78,5,8.28,8.28,0,0,0,.68,3.29c8,18.57,8.1,48,6.08,79.88-.09,1.22-.17,2.45-.26,3.68h57.88Z"/><path id="Path_248-2" data-name="Path 248-2" class="cls-1" d="M111,217a8.32,8.32,0,0,0-10.1-6,8.42,8.42,0,0,0-3,1.47l-7,6.4L62,245.07A7.93,7.93,0,0,0,59.9,248c-3.25,7.78-9.6,23.12-17,42.07q-1.78,4.63-3.69,9.54c-.44,1.22-.92,2.45-1.4,3.68h47.5c.39-1.23.77-2.46,1.16-3.68,2.11-6.67,4.17-13.21,6.16-19.57,5.8-18.47,11-35.26,15.09-48.53q1.68-5.5,3.07-10.18A8.3,8.3,0,0,0,111,217Z"/><path id="Path_249-2" data-name="Path 249-2" class="cls-2" d="M231,303.28h3.07l-.42-1-1.12-2.65-17.3-41-2.64,1.6L191.36,273l10.9,26.6,1.51,3.67Z"/><path id="Path_250-2" data-name="Path 250-2" class="cls-1" d="M213.49,226a25.39,25.39,0,0,0-31.81-15,21.44,21.44,0,0,0-2.34.92,25.13,25.13,0,0,0-10.7,9.06,24.55,24.55,0,0,0-2.63,5.09,25.27,25.27,0,0,0,.57,19.43l5.31,11.84,19,42.27,1.65,3.68H231l2.65-1,6.88-2.65.95-.36Z"/><path id="Path_251-2" data-name="Path 251-2" class="cls-1" d="M163.56,104.17a7.47,7.47,0,0,0,8.5-3.23,10.76,10.76,0,0,0,.62-9.45,19.75,19.75,0,0,0-5.87-7.75,22.87,22.87,0,0,0-10.33-5.34,13.71,13.71,0,0,0-11.13,2.44A9.91,9.91,0,0,0,142,91.36c1.17,3.39,4.34,5.66,7.5,7.35a49.78,49.78,0,0,0,20.29,5.77Z"/><path id="Path_252-2" data-name="Path 252-2" class="cls-1" d="M172.34,154.67c-7.26,1-6.33-2.7-9.23-9.42s-6.8-14.71-14.1-15.39c-6-.56-10.9,4.22-15.74,7.77C124.63,144,113,147.05,103,143.25s-17-15.72-13.17-25.72a22,22,0,0,1,12.7-12,44.27,44.27,0,0,1,17.68-2.46,91.28,91.28,0,0,1,38.35,9.82c8.22,4.18,16.23,10.15,19.34,18.83s5.17,20.87-3.74,23.22Z"/><path id="Path_253-2" data-name="Path 253-2" class="cls-1" d="M159.85,80.3c-3.59-6.24-.63-14.81,5.24-19s13.74-4.58,20.75-2.9a40.72,40.72,0,0,1,29.22,28.32c3,10.92,1.21,22.65,3.73,33.69a44.19,44.19,0,0,0,52.92,33.26h0c.88-.2,1.76-.43,2.63-.68,7.54-2.22,15.2-7.6,15.94-15.42a43.22,43.22,0,0,1-25.6,43.28c-9.72,4-20.55,4.32-31.07,4-6.86-.18-13.87-.59-20.2-3.24a36.21,36.21,0,0,1-19-20.6,57.25,57.25,0,0,1-2.53-28.37c1-7.4,3.1-14.66,3.68-22.11s-.52-15.42-5.12-21.31-13.37-8.91-19.9-5.28c-2.63,1.46-4.75,3.85-7.6,4.79s-6.9-.71-6.64-3.71Z"/><path id="Path_262-2" data-name="Path 262-2" class="cls-5" d="M286.55,0H21.45A21.31,21.31,0,0,0,0,21.12v261a21.31,21.31,0,0,0,21.45,21.12h265.1A21.31,21.31,0,0,0,308,282.16v-261A21.31,21.31,0,0,0,286.55,0Zm17.72,282.16a17.6,17.6,0,0,1-17.72,17.44H21.45A17.61,17.61,0,0,1,3.73,282.16v-261A17.61,17.61,0,0,1,21.45,3.68h265.1a17.6,17.6,0,0,1,17.72,17.44ZM70.41,299.6c.23.79.47,1.58.73,2.37l-.47,1.31h92.7c.09-1.23.17-2.46.26-3.68Z"/></g></g></g></svg>