<svg xmlns="http://www.w3.org/2000/svg" viewBox="0 0 308 303.28"><defs><style>.cls-1{fill:#6c63ff;}.cls-2{fill:#ffb8b8;}.cls-3{fill:#3f3d56;}.cls-4{fill:#2f2e41;}</style></defs><g id="Layer_2" data-name="Layer 2"><g id="Layer_1-2" data-name="Layer 1"><g id="Group_18" data-name="Group 18"><path id="Path_258-2" data-name="Path 258-2" class="cls-1" d="M109,196.56l-10.92,103-.38,3.68H68.19c.35-1.2.7-2.43,1.07-3.68,8.38-28.74,19.8-70.71,18.56-81.83-1.93-17.35,11.58-23.14,11.58-23.14l.85.17Z"/><circle id="Ellipse_55-2" data-name="Ellipse 55-2" class="cls-2" cx="156.67" cy="119.61" r="45.14"/><path id="Path_259-2" data-name="Path 259-2" class="cls-1" d="M215.11,281.41a73.61,73.61,0,0,0-5.57,13.16c-.53,1.61-1,3.31-1.53,5-.35,1.2-.66,2.43-1,3.68H88c.17-1.21.31-2.45.48-3.68,6.08-48.06,11-96.84,11.8-104.8.07-.75.11-1.14.11-1.14,71.35-37.6,123.42,11.58,123.42,11.58s.08.35.19,1C225.11,213.14,230.91,253.28,215.11,281.41Z"/><path id="Path_260-2" data-name="Path 260-2" class="cls-1" d="M209.54,294.57l-7.94-17,1.93-67.5L224,206.27l.71-.13a54.05,54.05,0,0,1,23.2,27.05c4,9.93,11.53,39.78,17.9,66.41.3,1.23.59,2.47.89,3.68H213.6l-1.71-3.68Z"/><path id="Path_261-2" data-name="Path 261-2" class="cls-3" d="M286.55,0H21.45A21.31,21.31,0,0,0,0,21.12v261a21.31,21.31,0,0,0,21.45,21.12h265.1A21.31,21.31,0,0,0,308,282.16v-261A21.31,21.31,0,0,0,286.55,0Zm17.72,282.16a17.6,17.6,0,0,1-17.72,17.44H21.45A17.61,17.61,0,0,1,3.73,282.16v-261A17.61,17.61,0,0,1,21.45,3.68h265.1a17.6,17.6,0,0,1,17.72,17.44ZM99.64,299.6l-.39,3.68h111c.32-1.25.64-2.48,1-3.68Z"/><path id="Path_266-2" data-name="Path 266-2" class="cls-4" d="M178.26,158.94a8.92,8.92,0,0,0,11.67.75c10.64-7.89,20-17.7,25.51-29.68,6.33-13.72,7-30.56-.61-43.6-6.45-11-17.85-18.14-29.21-24A51.82,51.82,0,0,0,171.51,57a20.08,20.08,0,0,0-14.61,2.36,12.62,12.62,0,0,0-5.7,13,47.47,47.47,0,0,0-20.28-13.61,26.29,26.29,0,0,0-15.49-1.13C108.22,59.7,103,66.11,100.08,73A30.77,30.77,0,0,0,97.76,89.8a20.49,20.49,0,0,0,8.95,14c6,3.69,13.57,3.42,20.41,1.91s13.48-4.12,20.46-4.79,14.74,1.08,19,6.66c3,3.93,3.75,9.06,4.43,14L174.5,147a30.9,30.9,0,0,0,2.77,10.63A6.16,6.16,0,0,0,178.26,158.94Z"/></g></g></g></svg>