<svg xmlns="http://www.w3.org/2000/svg" viewBox="0 0 309 309"><defs><style>.cls-1,.cls-6{fill:#6c63ff;}.cls-1{opacity:0.3;isolation:isolate;}.cls-2{fill:#fff;}.cls-3{fill:#ccc;}.cls-4{fill:#e6e6e6;}.cls-5{fill:#2f2e41;}.cls-7{fill:#ffb9b9;}.cls-8{fill:#3f3d56;}.cls-9{fill:none;stroke:#707070;}</style></defs><g id="Layer_2" data-name="Layer 2"><g id="Layer_1-2" data-name="Layer 1"><g id="Group_7" data-name="Group 7"><circle id="Ellipse_32" data-name="Ellipse 32" class="cls-1" cx="138.29" cy="57.7" r="2.64"/><g id="Group_6" data-name="Group 6"><path id="Path_143" data-name="Path 143" class="cls-2" d="M.5,154.5v154h154A154,154,0,0,1,.5,154.5Z"/><path id="Path_144" data-name="Path 144" class="cls-2" d="M154.5.5H.5v154A154,154,0,0,1,154.5.5Z"/><path id="Path_145" data-name="Path 145" class="cls-2" d="M154.5.5a154,154,0,0,1,154,154V.5Z"/><path id="Path_146" data-name="Path 146" class="cls-2" d="M154.5,308.5h154v-154A154,154,0,0,1,154.5,308.5Z"/></g><rect id="Rectangle_34" data-name="Rectangle 34" class="cls-3" x="55.53" y="177.34" width="39.65" height="44.33"/><path id="Path_147" data-name="Path 147" class="cls-4" d="M35.35,288.35H15.17L13,271.05H37.51Z"/><path id="Path_148" data-name="Path 148" class="cls-4" d="M75.88,275.82l-.68,9.31a3,3,0,0,0,2.74,3.18h.39l4.79-.29a1.52,1.52,0,0,0,1.42-1.6,2.33,2.33,0,0,0-.05-.28l-2.65-10.62Z"/><path id="Path_149" data-name="Path 149" class="cls-4" d="M115.89,281.33c5.62,1.32,9.65,3.19,12.29,5.72a5.48,5.48,0,0,0,3.47,1.49,8.77,8.77,0,0,0,4-.56h0a1.59,1.59,0,0,0,1-1.31,1.63,1.63,0,0,0-.68-1.5l-13.35-9.5-5.67,2.27-1.32,1.32a1.31,1.31,0,0,0,0,1.85h0a1.06,1.06,0,0,0,.29.22Z"/><path id="Path_150" data-name="Path 150" class="cls-5" d="M98.56,129.3,60.4,129a32.67,32.67,0,0,1,4.22-15.9A14.52,14.52,0,0,0,66,103.41a13,13,0,0,1,4.48-12.07,14.41,14.41,0,0,1,9.68-3.2l.74,0a14.42,14.42,0,0,1,11.84,7.12,12,12,0,0,1,1.43,7.32,12.16,12.16,0,0,0,1.69,7.21C98.19,115.14,98.69,122,98.56,129.3Z"/><path id="Path_151" data-name="Path 151" class="cls-6" d="M124.09,276.16l-7.49,2L80.14,198.67l2.27,77.5H74.92c-8-36.46-22.45-78.54-16-91.83l38.75-2.28Z"/><circle id="Ellipse_33" data-name="Ellipse 33" class="cls-7" cx="79.81" cy="105.87" r="10.09"/><path id="Path_152" data-name="Path 152" class="cls-7" d="M88.6,124.43l-16.61-1a18.27,18.27,0,0,0,1.63-10.75H86C86,115.33,87.27,119.86,88.6,124.43Z"/><path id="Path_153" data-name="Path 153" class="cls-6" d="M99,185,62.55,187.6,66.3,123l6.35-1.8,7.16,1.63L87,119.22l4.56,1.63Z"/><path id="Path_154" data-name="Path 154" class="cls-4" d="M68.74,231.55l-24.91-5.7c7.41-24.56,20.75-80.75,16.44-100.78l13-5.86Z"/><path id="Path_155" data-name="Path 155" class="cls-4" d="M56.69,160.57l-9.44-5.86,8-23.59a11.15,11.15,0,0,1,4.86-5.77l2.72-1.58-1.63,23.77Z"/><path id="Path_156" data-name="Path 156" class="cls-4" d="M120.67,226.18c-7.86,4.55-27.51,7.08-36.14,3.91-.63-22.19-1.88-85,2.12-111.52L101,124.43,99.67,142C92.82,157.05,112.71,209.44,120.67,226.18Z"/><path id="Path_157" data-name="Path 157" class="cls-4" d="M119.53,157.64l-8.79-2.93L99,141.36l2-16.93,19.54,27.35Z"/><path id="Path_158" data-name="Path 158" class="cls-7" d="M92,170.31a2.44,2.44,0,0,0,2.92,1.84l7.47-1.69-1.08-4.76-7.47,1.69A2.45,2.45,0,0,0,92,170.31Z"/><path id="Path_159" data-name="Path 159" class="cls-5" d="M88.6,103.26A21.5,21.5,0,0,0,72,102.94l-2.28-8.15H90.55Z"/><path id="Path_160" data-name="Path 160" class="cls-4" d="M98.7,164.8l4.23,7.81c7.12-2,13.29-8.24,19.21-15.62l-1.62-5.21-10.1,2.6Z"/><path id="Path_161" data-name="Path 161" class="cls-8" d="M95.6,148.68H94.3c0-18.42-3.79-31.25-7.49-31.25l-.33-1.3c3.32,0,5.43,5.34,6.62,9.82A92.55,92.55,0,0,1,95.6,148.68Z"/><path id="Path_162" data-name="Path 162" class="cls-8" d="M65.65,144.13h-1.3c0-16.87,3.81-27.36,9.44-27.36l-.33,1.3C69.57,118.08,65.65,126.13,65.65,144.13Z"/><circle id="Ellipse_34" data-name="Ellipse 34" class="cls-8" cx="94.95" cy="149.01" r="3.26"/><path id="Path_163" data-name="Path 163" class="cls-8" d="M60.43,151.94H59.14c0-4.67,2.62-8.46,5.86-8.46v1.29C62.48,144.78,60.43,148,60.43,151.94Z"/><path id="Path_164" data-name="Path 164" class="cls-8" d="M70.85,151.94h-1.3c0-3.95-2-7.16-4.55-7.16v-1.3C68.23,143.48,70.85,147.27,70.85,151.94Z"/><circle id="Ellipse_35" data-name="Ellipse 35" class="cls-8" cx="70.2" cy="152.27" r="1.3"/><circle id="Ellipse_36" data-name="Ellipse 36" class="cls-8" cx="59.78" cy="152.27" r="1.3"/><path id="Path_165" data-name="Path 165" class="cls-6" d="M43.5,140.29l8.13,1.45L70.2,168.15l-9.87-2.32Z"/><path id="Path_166" data-name="Path 166" class="cls-8" d="M42.06,140a.69.69,0,0,0-.57,1.07l17.37,26.34a.64.64,0,0,0,.42.29l8.07,1.9a.68.68,0,0,0,.83-.51.69.69,0,0,0-.1-.56L49,141.4a.66.66,0,0,0-.44-.28L42.19,140Z"/><path id="Path_167" data-name="Path 167" class="cls-7" d="M52.89,158.8l.49,4.86L61,162.9a2.44,2.44,0,0,0-.48-4.86Z"/><path id="Path_168" data-name="Path 168" class="cls-4" d="M46.27,158.24a6.29,6.29,0,0,0,6.27,6.24H53.8l.91-7.6-7.55-2.72Z"/><rect id="Rectangle_35" data-name="Rectangle 35" class="cls-4" x="160.42" y="80.75" width="148.49" height="78.21"/><path id="Path_169" data-name="Path 169" class="cls-2" d="M164.74,154.64H304.59V85.08H164.74Z"/><rect id="Rectangle_36" data-name="Rectangle 36" class="cls-8" x="175.55" y="95.17" width="49.74" height="49.74"/><circle id="Ellipse_37" data-name="Ellipse 37" class="cls-6" cx="213.4" cy="116.43" r="1.44"/><circle id="Ellipse_38" data-name="Ellipse 38" class="cls-6" cx="207.99" cy="111.39" r="1.44"/><path id="Path_170" data-name="Path 170" class="cls-6" d="M207.27,116.43a2.84,2.84,0,0,0-1.5.43,9.08,9.08,0,0,0-1.39-1.64c0-.07,0-.15,0-.23a2.89,2.89,0,0,0-4.88-2.08,9.57,9.57,0,0,0-2.33,0v-.06A2.89,2.89,0,1,0,192.4,115a9.51,9.51,0,0,0-1.31,1.38,2.88,2.88,0,1,0-1.84,5.1h0c0,.12,0,.24,0,.36a9.25,9.25,0,0,0,.26,2.16,5.4,5.4,0,1,0,7.05,6.7,9,9,0,0,0,5.89-.88,2.88,2.88,0,1,0,3.79-3.78,9,9,0,0,0,1-3.83h0a2.89,2.89,0,0,0,0-5.77h0Z"/><rect id="Rectangle_37" data-name="Rectangle 37" class="cls-4" x="192.13" y="94.09" width="14.42" height="2.16"/><rect id="Rectangle_38" data-name="Rectangle 38" class="cls-8" x="238.99" y="95.17" width="49.74" height="49.74"/><circle id="Ellipse_39" data-name="Ellipse 39" class="cls-6" cx="273.3" cy="128.25" r="0.65"/><circle id="Ellipse_40" data-name="Ellipse 40" class="cls-6" cx="270.87" cy="125.98" r="0.65"/><path id="Path_171" data-name="Path 171" class="cls-6" d="M270.54,128.25a1.22,1.22,0,0,0-.67.2,4,4,0,0,0-.63-.74s0-.07,0-.1a1.29,1.29,0,0,0-2.2-.93,3.69,3.69,0,0,0-1.05,0v0a1.3,1.3,0,1,0-2.15,1,3.9,3.9,0,0,0-.59.63,1.3,1.3,0,1,0-1.68,2,1.33,1.33,0,0,0,.85.31h0v.16a4,4,0,0,0,.12,1,2.43,2.43,0,1,0,3.17,3,4,4,0,0,0,2.65-.39,1.3,1.3,0,1,0,2.4-1,1.27,1.27,0,0,0-.7-.7,4,4,0,0,0,.46-1.72h0a1.3,1.3,0,1,0,0-2.6Z"/><circle id="Ellipse_41" data-name="Ellipse 41" class="cls-6" cx="278.39" cy="115.94" r="0.65"/><circle id="Ellipse_42" data-name="Ellipse 42" class="cls-6" cx="279.92" cy="112.98" r="0.65"/><path id="Path_172" data-name="Path 172" class="cls-6" d="M277.64,113.29a1.28,1.28,0,0,0-.36-.6,4.11,4.11,0,0,0,.53-.8l.1,0a1.29,1.29,0,0,0,.3-2.36,4,4,0,0,0-.27-1h0a1.3,1.3,0,0,0-.7-2.51,1.34,1.34,0,0,0-.83.7,4.15,4.15,0,0,0-.75-.4,1.3,1.3,0,1,0-2.37-1.07,1.33,1.33,0,0,0-.07.9h0l-.15,0a3.56,3.56,0,0,0-.9.37,2.43,2.43,0,1,0-3.92,2.88,2.41,2.41,0,0,0,1.88,1,4,4,0,0,0,1.1,2.45,1.3,1.3,0,1,0,1.62,2,1.36,1.36,0,0,0,.48-.85,4.11,4.11,0,0,0,1.78,0h0a1.3,1.3,0,0,0,2.5-.7Z"/><circle id="Ellipse_43" data-name="Ellipse 43" class="cls-6" cx="253.26" cy="107.13" r="0.65"/><circle id="Ellipse_44" data-name="Ellipse 44" class="cls-6" cx="249.95" cy="107.39" r="0.65"/><path id="Path_173" data-name="Path 173" class="cls-6" d="M251.4,109.16a1.29,1.29,0,0,0-.31.63,3.94,3.94,0,0,0-1,0l-.07-.08a1.3,1.3,0,0,0-2.17,1,3.51,3.51,0,0,0-.72.77l0,0a1.3,1.3,0,1,0-.73,2.25,4,4,0,0,0,.06.85,1.3,1.3,0,1,0,1.14,2.16h0l.12.12a4,4,0,0,0,.79.56,2.43,2.43,0,1,0,4.37-.31,4.12,4.12,0,0,0,1.5-2.22,1.3,1.3,0,0,0,.88-2.45,1.26,1.26,0,0,0-1,.05,4,4,0,0,0-1-1.5h0a1.3,1.3,0,0,0-1.91-1.76h0Z"/><rect id="Rectangle_39" data-name="Rectangle 39" class="cls-4" x="255.57" y="94.09" width="14.42" height="2.16"/><path id="Path_174" data-name="Path 174" class="cls-4" d="M10,264.65c5.2,7,16,7.7,16,7.7s2.36-10.56-2.84-17.52-16-7.69-16-7.69S4.79,257.69,10,264.65Z"/><path id="Path_175" data-name="Path 175" class="cls-4" d="M36.46,267.27c-3.43,4.59-10.55,5.07-10.55,5.07s-1.56-7,1.87-11.55,10.55-5.08,10.55-5.08S39.89,262.68,36.46,267.27Z"/><rect id="Rectangle_40" data-name="Rectangle 40" class="cls-8" x="0.91" y="288.23" width="187.26" height="0.81"/><circle id="Ellipse_45" data-name="Ellipse 45" class="cls-9" cx="154.5" cy="154.5" r="154"/></g></g></g></svg>