<svg xmlns="http://www.w3.org/2000/svg" viewBox="0 0 308 303.28"><defs><style>.cls-1{fill:#6c63ff;}.cls-2{fill:#a0616a;}.cls-3{fill:#2f2e41;}.cls-4{fill:#3f3d56;}</style></defs><g id="Layer_2" data-name="Layer 2"><g id="Layer_1-2" data-name="Layer 1"><g id="Group_17" data-name="Group 17"><path id="Path_254-2" data-name="Path 254-2" class="cls-1" d="M119.91,303.28l.35-3.68,10.37-107.85a65.66,65.66,0,0,1,10.9-6.93c21.34-10.76,41.92-5.61,53.06-1.16a57.53,57.53,0,0,1,8.53,4.17l6.07,111.77.2,3.68Z"/><circle id="Ellipse_54-2" data-name="Ellipse 54-2" class="cls-2" cx="168.46" cy="117.9" r="45.15"/><path id="Path_255-2" data-name="Path 255-2" class="cls-3" d="M205.09,145.42a24.57,24.57,0,0,0-.91-34.74h0A24.55,24.55,0,0,0,186.45,104c-6.25.2-12.13,2.76-18.09,4.63a59.7,59.7,0,0,1-28.1,2.53A37.5,37.5,0,0,1,116.34,97C110.75,89.31,109,78.66,113,70c4.55-10,15.2-15.46,25.2-19.93A46.23,46.23,0,0,1,151,45.9a16.41,16.41,0,0,1,12.73,3.21c2.82,2.42,4.47,6.06,7.53,8.16,3.44,2.36,7.92,2.3,12.07,2.71a46.32,46.32,0,0,1,22.44,83.7Z"/><path id="Path_256-2" data-name="Path 256-2" class="cls-3" d="M148.25,203.49l-6.72-18.67-.42-1.16a3.87,3.87,0,0,0-5-2.33,4.12,4.12,0,0,0-.84.42l-7.63,5.09s-49,0-52.92,29.39c-.06.46-.13,1-.18,1.53,0,0,0,.05,0,.07-.5,1.93-9.74,37.66-17.68,81.78-.22,1.21-.45,2.44-.67,3.67H162.66C166.13,259,164.19,217.76,148.25,203.49Z"/><path id="Path_257-2" data-name="Path 257-2" class="cls-3" d="M275.23,299.6c-5.81-45.25-14.12-81.85-14.12-81.85-.07-.55-.15-1.06-.2-1.52C257,186.84,208,186.84,208,186.84l-7.63-5.09a3.85,3.85,0,0,0-5.36,1.07h0a3.7,3.7,0,0,0-.43.84l-7.15,19.83C171.51,217.76,169.57,259,173,303.28H275.69C275.54,302.05,275.37,300.82,275.23,299.6Z"/><path id="Path_263-2" data-name="Path 263-2" class="cls-4" d="M286.55,0H21.45A21.31,21.31,0,0,0,0,21.12v261a21.31,21.31,0,0,0,21.45,21.12h265.1A21.32,21.32,0,0,0,308,282.16v-261A21.32,21.32,0,0,0,286.55,0Zm17.72,282.16a17.61,17.61,0,0,1-17.72,17.44H21.45A17.6,17.6,0,0,1,3.73,282.16v-261A17.6,17.6,0,0,1,21.45,3.68h265.1a17.61,17.61,0,0,1,17.72,17.44ZM160.68,299.6c-.09,1.22-.18,2.45-.28,3.68h80.44c.15-1.21.31-2.45.46-3.68Z"/></g></g></g></svg>