<svg xmlns="http://www.w3.org/2000/svg" xmlns:xlink="http://www.w3.org/1999/xlink" viewBox="0 0 1111 589.49"><defs><style>.cls-1,.cls-6{fill:#6c63ff;}.cls-1,.cls-5{opacity:0.1;}.cls-1,.cls-5,.cls-7{isolation:isolate;}.cls-2{fill:url(#linear-gradient);}.cls-3{fill:#f7d6c8;}.cls-4{fill:#efb7b9;}.cls-7{opacity:0.05;}.cls-8{fill:#c3705a;}.cls-9{fill:#ecb4b6;}.cls-10{fill:#463a3e;}.cls-11{fill:#c17174;}</style><linearGradient id="linear-gradient" x1="42.67" y1="-455.12" x2="42.67" y2="-454.12" gradientTransform="matrix(1010.84, 0, 0, -461.02, -42576.5, -209292.14)" gradientUnits="userSpaceOnUse"><stop offset="0" stop-color="gray" stop-opacity="0.25"/><stop offset="0.54" stop-color="gray" stop-opacity="0.12"/><stop offset="1" stop-color="gray" stop-opacity="0.1"/></linearGradient></defs><g id="Layer_2" data-name="Layer 2"><g id="Layer_1-2" data-name="Layer 1"><g id="Group_12" data-name="Group 12"><path id="Path_208" data-name="Path 208" class="cls-1" d="M47.11,80.59c1.8,11.42,6.4,22.45,6.44,34,.15,37.74-45.64,60.92-52.65,98-4.16,22,6.62,44.48,21.82,60.89s34.58,28.24,52.43,41.74a335.68,335.68,0,0,1,110,145.5c4.51,11.6,8.39,23.56,9.67,35.94.93,9,.49,18.21,2.6,27,8.35,34.89,50.69,48.43,86.49,50.69a379.31,379.31,0,0,0,168.74-28.18c12-5,24.39-10.68,37.27-9.27,10.3,1.13,19.49,6.7,28.53,11.77a378.62,378.62,0,0,0,84.38,34.74c16.3,4.5,33.41,7.92,50.06,5,50-8.82,76.57-69.46,125.63-82.72,33.94-9.17,69.26,6.85,99.7,24.44s61.86,37.85,97,37.9c46.88.06,85.42-35.42,117.22-69.86,6.67-7.23,13.45-14.79,16.63-24.1,6.45-18.9-4-40.13-19.45-52.83s-34.93-19-53.54-26.26A464.62,464.62,0,0,1,946.3,348.1c-18.2-12.2-35.83-26-48.28-44-10.71-15.52-17.14-33.51-24.32-51-15.74-38.19-38-77-75.17-94.92-30.35-14.64-65.6-13-99.29-13.39-49.64-.55-100.54-6.52-144.55-29.48C517.52,96,487,65.36,449.27,47,389.27,17.9,320.68,23.61,256,24.71c-31.07.53-68,3.63-97.84-6.55C136.12,10.63,124.76-4.76,99.41,1.44,64.74,9.89,41.57,45.36,47.11,80.59Z"/><path id="Path_209" data-name="Path 209" class="cls-2" d="M966.33,355.48a25,25,0,0,1,.47-15.86c3-7.76,10.31-13.36,12.88-21.29,4.78-14.73-8.1-28.52-16-41.87a70.3,70.3,0,0,1-9.41-41c1.23-15.36,7.52-30.05,8-45.45.43-14.35-4.22-28.31-8.81-41.91-3.79-11.24-7.65-22.61-14.06-32.59-12.12-18.87-33.65-30.73-55.79-32.69-10.45-.93-20.67,2.47-30.94,1.14-14.26-1.84-27.74-5.54-42.28-6-13.81-.41-29.08,1.34-38.49,11.46-7.19,7.75-9.49,18.94-16.07,27.22-9.34,11.75-25.67,15.78-36,26.66a37.78,37.78,0,0,0-8.53,36.43c1.43,4.64,3.77,9,5.29,13.56,6.39,19.26-2,39.86-7.07,59.5a9,9,0,0,0-.3,5c.8,2.4,3.32,3.66,5.41,5.08,6.84,4.66,10.33,13.1,11,21.35s-1.24,16.47-3.12,24.53c-4.79,20.49-10.78,42.44-26.57,56.07a144.38,144.38,0,0,0-10.14-19.76c-9.66-15.66-16.81-35-16.93-53.51a.49.49,0,0,1,0-.17c0-1,0-2,.11-3,1.25-21.84,10.69-42.91,10.48-64.65,0-1.76-.05-3.52-.15-5.29-1.23-18.61-10.17-35.82-20.42-51.4-7.65-11.63-16.27-22.86-27.31-31.33-17.07-13-38.76-18.63-60.07-21.61s-40.7-5.78-62.18-7.22c-23.1-1.55-48.52-2.42-66.78,11.8-23.81,18.54-25.13,54.35-43.28,78.45-10.8,14.34-28,25.42-33.69,41.71a101.08,101.08,0,0,1-3.84-12.25l-.18-.83a119.25,119.25,0,0,0,4.63-61.23,76.14,76.14,0,0,0,.69-10,39.36,39.36,0,0,0-1.17-10.81c-2.57-9.74-9.66-17.53-16.51-24.92a72.37,72.37,0,0,0-8.1-7.85A118.72,118.72,0,0,0,138.66,229c-.88,6.82-3.52,13.45-8.37,18.26-2.21,2.19-5.07,4.93-4.59,7.73a3.74,3.74,0,0,0,.32,2.35,6.55,6.55,0,0,0,2,2.19,36.06,36.06,0,0,0,24.49,7.3,102.39,102.39,0,0,0,41.24,52.94c0,.67,0,1.31-.07,1.94,0,1.11-.09,2.21-.14,3.33v.46c0-.1-34.82,45.39-67,47.08-17.18.9-32.17,12.49-43.53,25.74C69.37,414.17,61,432.45,60.23,437.51c-1.33,9.28-10.61,54.38-10.61,54.38H317c-3.16,16.24-7.42,36.93-7.42,36.93H742.33c-1-13.91-2.11-26.77-3.14-37.66H793.6l-.06.33h251l15.92-23.89C1056.51,398,1015.45,359.72,966.33,355.48Zm-624.9-77.76a64.85,64.85,0,0,0,18,6.48c2.73.56,5.78.91,8.11-.62a9.37,9.37,0,0,0,3.27-4.63l.12.3c6.75,17,13,34.54,14.21,52.8.11,1.72.18,3.44.19,5.17A74.73,74.73,0,0,1,379,367.48a583.22,583.22,0,0,1-65.27-40l-1.41-.6c0,.11.49,1.36,1.07,3.47.14.51.29,1.07.44,1.67-1.43-4.62-2.73-9.34-3.87-14.15l-.39-1.71A102.6,102.6,0,0,0,341.43,277.72Z"/><path id="Path_215" data-name="Path 215" class="cls-3" d="M806.38,81.5c-13.59-.41-28.63,1.32-37.88,11.28-7.08,7.62-9.34,18.64-15.82,26.79-9.19,11.57-25.26,15.53-35.44,26.24a37.19,37.19,0,0,0-8.4,35.86c1.41,4.56,3.71,8.81,5.21,13.34,6.29,19-1.92,39.23-7,58.56a8.75,8.75,0,0,0-.29,4.94c.78,2.36,3.27,3.6,5.32,5,6.73,4.59,10.17,12.89,10.78,21s-1.22,16.21-3.07,24.14c-4.91,21-11.11,43.61-28.16,56.84-7.2,5.65-16.82,10.23-18.7,19.23-2.2,10.54,7.86,19.5,17.51,24.27,28.33,14,61.22,14.2,92.21,20.44,27.29,5.5,54.51,15.92,82.13,12.36,12.31-1.58,24.08-5.91,35.73-10.2l72.54-26.73a19,19,0,0,0,5.7-2.87c4.37-3.64,4.52-10.56,2.14-15.73s-6.7-9.13-10.5-13.37c-8.28-9.27-14.58-22.36-10.06-33.94,3-7.64,10.15-13.15,12.68-21,4.7-14.5-8-28.08-15.7-41.22a69.26,69.26,0,0,1-9.26-40.31c1.21-15.12,7.4-29.58,7.85-44.74.42-14.12-4.15-27.86-8.67-41.25-3.73-11.06-7.53-22.25-13.84-32.08-11.93-18.57-33.12-30.24-54.92-32.18-10.29-.91-20.34,2.43-30.45,1.13C834,85.57,820.69,81.93,806.38,81.5Z"/><path id="Path_216" data-name="Path 216" class="cls-4" d="M826.67,478.31s-82.24-51.56-50.26-111c7.4-13.74,10.67-26.74,11.34-38.61a81.71,81.71,0,0,0,0-9.39v-.45c-.11-1.61-.25-3.2-.43-4.76-3.81-31.38-24-51.83-24-51.83s136.41-39.81,113.57-3.92c-10.6,16.66-7.43,33-.33,49.91.75,1.78,1.55,3.58,2.38,5.37,8.2,17.83,19.58,36.3,22.76,56.33C908.25,411.08,826.67,478.31,826.67,478.31Z"/><path id="Path_217" data-name="Path 217" class="cls-5" d="M876.92,258.35c-10.6,16.66-7.43,33-.33,49.91a92.17,92.17,0,0,1-89.3,5.88c-3.78-31.42-23.94-51.87-23.94-51.87S899.77,222.45,876.92,258.35Z"/><circle id="Ellipse_49" data-name="Ellipse 49" class="cls-4" cx="826.66" cy="228.98" r="92.03"/><path id="Path_218" data-name="Path 218" class="cls-5" d="M787.75,319.35v-.45l.11-.18A2.68,2.68,0,0,0,787.75,319.35Z"/><path id="Path_219" data-name="Path 219" class="cls-5" d="M826.67,478.31s-82.24-51.56-50.26-111c7.4-13.74,10.67-26.74,11.34-38.61,1.87,14.68,12,32.93,30.44,58.19,8,11,11.44,26.38,12.53,41.75l1.83,1.33,9-5.44c1-17,4.44-34.18,12.58-46.36,21.39-32,26.47-48,24.89-64.58,8.2,17.83,19.58,36.3,22.76,56.33C908.25,411.08,826.67,478.31,826.67,478.31Z"/><path id="Path_220" data-name="Path 220" class="cls-6" d="M958.51,354.46c-49-3.56-80-41.6-80-41.6,2.61,17.82-1.63,33.77-24.48,68-8.09,12.14-11.52,29.29-12.52,46.33l-9,5.44-1.83-1.33c-1.09-15.36-4.52-30.76-12.53-41.75-22.84-31.33-33-51.89-30.35-68.21,0,0-25.13,40.79-74.08,44.06s-90.07,37.86-94,101.17l15.66,21.54H789.85l-.06.33h247l15.72-23.53C1048.58,395.79,1007.51,358,958.51,354.46Z"/><path id="Path_221" data-name="Path 221" class="cls-7" d="M958.51,354.46c-49-3.56-80-41.6-80-41.6,2.61,17.82-1.63,33.77-24.48,68-8.09,12.14-11.52,29.29-12.52,46.33l-9,5.44-1.83-1.33c-1.09-15.36-4.52-30.76-12.53-41.75-22.84-31.33-33-51.89-30.35-68.21,0,0-25.13,40.79-74.08,44.06s-90.07,37.86-94,101.17l15.66,21.54H789.85l-.06.33h247l15.72-23.53C1048.58,395.79,1007.51,358,958.51,354.46Z"/><path id="Path_222" data-name="Path 222" class="cls-5" d="M888.88,184.5c-4,9.9-11.1,18.26-18.86,25.6-10.72,10.15-24.2,19.09-38.94,18.4a59.72,59.72,0,0,0,16.81-27.62c-9.3,5.42-16.33,14-25.21,20.11s-21.43,9.26-30.11,2.88a90.28,90.28,0,0,0,37.67-35.59c-21.08,5.47-31.9,29.21-50.89,39.87-8.9,5-19.31,6.88-29.51,6.66-7.25-.15-15.33-1.84-19.37-7.86-2.36-3.5-2.91-7.9-3-12.13-.44-19.18,7.37-38,19.4-52.93s28-26.28,45.08-35.09c6.08-3.14,12.42-6,19.19-7,8.42-1.22,17,.57,25.26,2.47,10.74,2.46,21.54,5.16,31.43,10C888.94,142.72,898.16,161.66,888.88,184.5Z"/><path id="Path_223" data-name="Path 223" class="cls-3" d="M888.88,183.19c-4,9.9-11.1,18.26-18.86,25.6-10.72,10.15-24.2,19.09-38.94,18.4a59.72,59.72,0,0,0,16.81-27.62c-9.3,5.42-16.33,14-25.21,20.11s-21.43,9.26-30.11,2.88A90.28,90.28,0,0,0,830.24,187c-21.08,5.47-31.9,29.21-50.89,39.87-8.9,5-19.31,6.88-29.51,6.66-7.25-.15-15.33-1.84-19.37-7.86-2.36-3.5-2.91-7.9-3-12.13-.44-19.18,7.37-38,19.4-52.93s28-26.28,45.08-35.09c6.08-3.14,12.42-6,19.19-7,8.42-1.22,17,.57,25.26,2.47,10.74,2.46,21.54,5.16,31.43,10C888.94,141.39,898.16,160.35,888.88,183.19Z"/><circle id="Ellipse_50" data-name="Ellipse 50" class="cls-8" cx="254.32" cy="188.26" r="116.83"/><path id="Path_224" data-name="Path 224" class="cls-9" d="M359.08,413.11s-107,27.41-109.65,30-90.07,7.18-64.62-46.34c9.35-19.65,13.24-46.34,14.42-72.25.05-1.1.1-2.19.14-3.28,1.61-43.43-4.11-83.73-4.11-83.73s124-49,114.87,25.46c-2.28,18.52-.39,37.13,3.75,54.63,1.38,5.84,3,11.55,4.8,17.09C333.16,379.33,359.08,413.11,359.08,413.11Z"/><path id="Path_225" data-name="Path 225" class="cls-5" d="M313.87,317.62a100.54,100.54,0,0,1-114.51,3.64c1.61-43.43-4.11-83.73-4.11-83.73s124-49,114.87,25.46C307.85,281.52,309.74,300.13,313.87,317.62Z"/><circle id="Ellipse_51" data-name="Ellipse 51" class="cls-9" cx="253.99" cy="234.92" r="100.51"/><path id="Path_226" data-name="Path 226" class="cls-5" d="M359.08,413.11s-107,27.41-109.65,30-90.07,7.18-64.62-46.34c9.35-19.65,13.24-46.34,14.42-72.25,1,13.54,8.74,46.33,9.73,57.24a9.22,9.22,0,0,0,.38,1.88c1.45,4.85,6.62,10.44,12.85,15.74l.37.31a47.67,47.67,0,0,0,56.14,3.75A253.92,253.92,0,0,0,304.26,385c11.64-9.61,15.27-22.56,15.72-34a72.58,72.58,0,0,0-1.3-16.38C333.16,379.33,359.08,413.11,359.08,413.11Z"/><path id="Path_227" data-name="Path 227" class="cls-6" d="M494.19,488.83H57.51S66.65,444.45,68,435.31c.71-5,9-23,22.43-38.63,11.18-13,25.93-24.45,42.84-25.34,31.65-1.66,65.92-46.34,65.92-46.34h0c.76,13,8.78,46.95,9.79,58.09a9.22,9.22,0,0,0,.38,1.88c1.45,4.85,6.62,10.44,12.85,15.74l.37.31a47.67,47.67,0,0,0,56.14,3.76,255.51,255.51,0,0,0,25.56-18.42c11.64-9.61,15.27-22.56,15.72-34a75.23,75.23,0,0,0-2.73-22.49c-.3-1.16-.65-2.29-1.06-3.41l1.39.59s59.13,43,113.3,60.58a64.76,64.76,0,0,1,17.76,9,76.52,76.52,0,0,1,12.06,10.83,112.17,112.17,0,0,1,18,27.69C491.23,461.77,494.19,488.83,494.19,488.83Z"/><path id="Path_228" data-name="Path 228" class="cls-7" d="M494.19,488.83H57.51S66.65,444.45,68,435.31c.71-5,9-23,22.43-38.63,11.18-13,25.93-24.45,42.84-25.34,31.65-1.66,65.92-46.34,65.92-46.34h0c.76,13,8.78,46.95,9.79,58.09a9.22,9.22,0,0,0,.38,1.88c1.45,4.85,6.62,10.44,12.85,15.74l.37.31a47.67,47.67,0,0,0,56.14,3.76,255.51,255.51,0,0,0,25.56-18.42c11.64-9.61,15.27-22.56,15.72-34a75.23,75.23,0,0,0-2.73-22.49c-.3-1.16-.65-2.29-1.06-3.41l1.39.59s59.13,43,113.3,60.58a64.76,64.76,0,0,1,17.76,9,76.52,76.52,0,0,1,12.06,10.83,112.17,112.17,0,0,1,18,27.69C491.23,461.77,494.19,488.83,494.19,488.83Z"/><path id="Path_229" data-name="Path 229" class="cls-5" d="M302.31,201.17c2.6,10,6,21.11,14.93,26.32a12.8,12.8,0,0,1,3.27,2.23c2.2,2.39,1.53,6.12,1.2,9.36-1.14,11.12,3.64,22.39,11.48,30.36s18.45,12.84,29.4,15.08c2.68.55,5.69.9,8-.61a9.37,9.37,0,0,0,3.28-4.71c3.05-8.11,1.76-17.22-.79-25.5s-6.31-16.18-8.24-24.63c-4.59-20,1.49-40.77,4.23-61.16.91-6.78,1.44-13.77-.31-20.38-2.53-9.58-9.51-17.26-16.25-24.53-3.63-3.91-7.34-7.89-12-10.45-13.74-7.51-31.43-.84-46.1-6.31-5.87-2.19-10.86-6.19-16.45-9-11.87-6-25.94-6.33-38.95-3.6s-25.2,8.34-37.27,13.9l-9.23,4.18c-13,6-26.93,12.78-33.93,25.33-7.45,13.36-5.38,30.46-12.83,43.82-2.26,4-5.41,7.84-6,12.44-.4,3.32.62,6.64,1.57,9.85,2.32,7.81,4.34,15.84,4.16,24s-2.78,16.52-8.56,22.26c-2.44,2.42-5.7,5.52-4.2,8.61a6.56,6.56,0,0,0,2,2.16,35.41,35.41,0,0,0,33.73,5c4.38-1.67,8.52-4.35,11-8.3a32.45,32.45,0,0,0,3.54-9.28c3.16-11.77,6.34-23.74,6.09-35.93-.14-7-1.42-14.06-.4-21s5.07-14.09,11.82-16c5-1.43,10.35.3,15.57.25,7.52-.06,16.74-8.4,23.71-6,6,2.12,10.75,13.6,15.71,18C268.07,198.21,285.63,204.08,302.31,201.17Z"/><path id="Path_230" data-name="Path 230" class="cls-8" d="M302.31,199.86c2.6,10,6,21.11,14.93,26.32a13.11,13.11,0,0,1,3.23,2.18c2.2,2.39,1.53,6.12,1.2,9.36-1.14,11.12,3.64,22.39,11.48,30.36s18.45,12.84,29.4,15.08c2.68.55,5.69.9,8-.61a9.37,9.37,0,0,0,3.28-4.71c3.05-8.11,1.76-17.22-.79-25.5s-6.31-16.18-8.24-24.63c-4.59-20.05,1.49-40.77,4.23-61.16.91-6.78,1.44-13.77-.31-20.38-2.53-9.58-9.51-17.26-16.25-24.53-3.63-3.91-7.34-7.89-12-10.45-13.74-7.51-31.43-.84-46.1-6.31-5.87-2.19-10.86-6.19-16.45-9-11.87-6-25.94-6.33-39-3.6s-25.2,8.34-37.27,13.9l-9.11,4.2c-13,6-26.93,12.78-33.93,25.33-7.45,13.36-5.38,30.46-12.83,43.82-2.26,4-5.41,7.84-6,12.44-.4,3.32.62,6.64,1.57,9.85,2.32,7.81,4.34,15.84,4.16,24s-2.78,16.52-8.56,22.26c-2.44,2.42-5.7,5.52-4.2,8.61a6.56,6.56,0,0,0,2,2.16,35.41,35.41,0,0,0,33.73,5c4.38-1.67,8.52-4.35,11-8.3a32.56,32.56,0,0,0,3.54-9.28c3.16-11.77,6.34-23.74,6.09-35.93-.14-7-1.42-14.06-.4-21s5.07-14.09,11.82-16c5-1.43,10.35.3,15.57.25,7.52-.06,16.74-8.4,23.71-6,6,2.12,10.75,13.6,15.71,18C268.07,196.91,285.63,202.78,302.31,199.86Z"/><rect id="Rectangle_53" data-name="Rectangle 53" class="cls-10" x="408.03" y="242.55" width="229.1" height="196.46"/><rect id="Rectangle_54" data-name="Rectangle 54" class="cls-7" x="408.03" y="242.55" width="229.1" height="196.46"/><path id="Path_231" data-name="Path 231" class="cls-11" d="M604.28,525.17h-196c2.53-14.27,9.93-29.91,24.35-46.77a173,173,0,0,0,27.62-44.2q2.79-6.43,5-12.89A188.72,188.72,0,0,0,474,381.89a11,11,0,0,1,.13-1.14,215.2,215.2,0,0,0,1.22-27.92v-2a254.57,254.57,0,0,0-11.25-67.42l-.25-.78c-2.13-6.71-3.69-10.48-3.69-10.48s3.89-2.11,10.31-5.22l.54-.26c23.61-11.34,79.5-35,104.14-18.14l.4.27c8.62,6.14,13.26,17.41,11.08,36.18v.22c0,.33-.06.67-.11,1a364.27,364.27,0,0,0-1.87,38.94v2c0,3.05,0,6.13.1,9.26v1.26c.2,10.1.65,20.53,1.28,31.11.87,14.67,2.11,29.61,3.54,44.27.61,6.27,1.27,12.5,2,18.63.08.72.16,1.46.24,2.17.84,7.47,1.71,14.79,2.6,21.89l.06.46C597.91,484.39,601.67,509,604.28,525.17Z"/><path id="Path_232" data-name="Path 232" class="cls-5" d="M586.59,285v.22a358.6,358.6,0,0,0-2,40v2a95.4,95.4,0,0,1-109.25,25.68v-2a254,254,0,0,0-11.5-68.2c-2.13-6.71-3.69-10.48-3.69-10.48s3.89-2.11,10.31-5.22c23.38-11.3,80.43-35.7,105.05-18.18C584.12,255,588.76,266.25,586.59,285Z"/><circle id="Ellipse_52" data-name="Ellipse 52" class="cls-11" cx="512.35" cy="263.02" r="95.32"/><path id="Path_233" data-name="Path 233" class="cls-5" d="M517.4,524.52H314.05s9.14-44.38,10.44-53.52c.71-5,9-23,22.43-38.63a98.66,98.66,0,0,1,60.68-21.53c38.89-.58,50.21,12.81,53.28,22.71a22.15,22.15,0,0,1,.8,10.29L469,454.5Z"/><path id="Path_234" data-name="Path 234" class="cls-6" d="M516.75,525.17H313.4s9.14-44.38,10.44-53.52c.71-5,9-23,22.43-38.63A98.66,98.66,0,0,1,407,411.49c38.89-.58,50.21,12.81,53.28,22.71a22.15,22.15,0,0,1,.8,10.29l7.36,10.66Z"/><path id="Path_235" data-name="Path 235" class="cls-5" d="M738.73,524.52H525.67c10.16-21.62,36.79-79.26,38.27-92.59.57-5.16,6.07-10,13.35-14.11a75.9,75.9,0,0,1,7.09-3.58l.44-.2c1.33-.59,2.68-1.13,4-1.63a81.12,81.12,0,0,1,57,.45c17.49,6.65,40,15.61,57.52,24l.14.07c4.5,2.16,8.69,4.27,12.38,6.3,7.38,4,12.77,7.75,14.84,10.71,1,1.36,2,7.49,3.15,17C735.43,483.8,737.1,502.88,738.73,524.52Z"/><path id="Path_236" data-name="Path 236" class="cls-6" d="M739.38,525.17H526.32c10.16-21.62,36.79-79.26,38.27-92.59.57-5.16,6.07-10,13.35-14.11a75.9,75.9,0,0,1,7.09-3.58l.44-.2c1.33-.59,2.68-1.13,4-1.63a81.12,81.12,0,0,1,57,.45c17.49,6.65,40,15.61,57.52,24l.14.07c4.5,2.16,8.69,4.27,12.38,6.3,7.38,4.05,12.77,7.75,14.84,10.71,1,1.36,2,7.49,3.15,17C736.09,484.45,737.75,503.54,739.38,525.17Z"/><path id="Path_237" data-name="Path 237" class="cls-5" d="M705.09,420.62q0,4.61-.25,9.23c-.09,1.5-.21,3-.34,4.5-.09,1.08-.2,2.15-.31,3.22l-.14,1.24c-1.63,14.54-4.64,29-5,43.61v2.07c-.07,13.72,2.15,27.23,5.16,40.68H581.51c-.2-2.49-.3-5-.27-7.47a65.09,65.09,0,0,1,.37-6.7c1.89-18.41,11.3-35.64,12.72-53.93l.06-.84c.09-1.37.14-2.75.12-4.13v-.37a71,71,0,0,0-2.77-17.86l-.24-.87c-1.72-5.76-3.72-11.44-6-17l-.44-1.11c-3.33-8.32-6.83-16.57-9.2-24.84a66.15,66.15,0,0,1-2.89-19c0-1.15.07-2.3.16-3.45.08-.94.19-1.88.33-2.83a43.54,43.54,0,0,1,.88-4.41c2-7.88,6.27-15.27,10.36-22.59h0c4.55-8.15,8.89-16.21,9.67-24.78a29.59,29.59,0,0,0,.11-3.26h0a29.28,29.28,0,0,0-.4-4.18c-1.05-6.08-4.18-11.55-6.75-17.16-.26-.57-.52-1.14-.77-1.72,0-.09-.08-.18-.11-.27-5-11.55-7.9-23.87-11-36.13-.13-.53-.26-1.06-.4-1.58-.75-3-1.52-6-2.34-9-4.48-16.36-10.86-32.89-23-44.7s-31.5-17.79-46.7-10.27c-13.15,6.55-20.27,21.21-23.48,35.53s-3.47,29.27-7.64,43.35c-.3,1-.63,2-1,3.07-.18.52-.36,1-.54,1.57A157.43,157.43,0,0,1,464,283.41l-.25.53c-7.6,16.17-16.43,32.06-16.71,48.31v1.52a41.94,41.94,0,0,0,1.74,11.4c2,6.66,5.62,12.47,9.84,18,.83,1.09,1.69,2.16,2.56,3.23,4.2,5.16,8.76,10.16,12.75,15.48l.13.17a63.64,63.64,0,0,1,7.63,12.73,46.51,46.51,0,0,1,.2,35.9,67.16,67.16,0,0,1-3.89,7.66c-2.57,4.44-5.4,8.76-7.63,13.38a47.85,47.85,0,0,0-2,4.73c-5,12.88-6.08,27.13-10.16,40.42a91.85,91.85,0,0,1-14.53,28.29h-130c1.51-7.39,9-44,10.18-52.22.71-5,9-23,22.43-38.63-1.13.89-2.22,1.79-3.27,2.69a111.11,111.11,0,0,0-21.77,25.06c.29-.9.59-1.81.89-2.71,1.83-5.46,3.81-10.87,5.82-16.21,5.82-15.38,12.3-31.07,23.9-42.73,6.55-6.58,14.52-11.65,20.76-18.52,11-12.09,15.55-28.84,15.42-45.26,0-1.7-.07-3.39-.18-5.08-1.19-18-7.34-35.23-14-52-3.58-9-7.38-18.46-7.21-28a31.38,31.38,0,0,1,.29-4c2.75-19.77,22.75-31.61,34.76-47.56,17.86-23.73,19.16-59,42.59-77.22,18-14,43-13.14,65.73-11.62,21.14,1.42,40.22,4.17,61.2,7.11s42.27,8.46,59.1,21.39c10.87,8.34,19.35,19.39,26.88,30.84,10.08,15.34,18.89,32.28,20.1,50.59.09,1.31.14,2.61.14,3.9.21,21.4-9.08,42.14-10.31,63.63,0,1-.09,2-.1,3a.43.43,0,0,0,0,.16c-.22,18.63,6.93,38.19,16.66,54a144.82,144.82,0,0,1,21.38,74.85Z"/><path id="Path_238" data-name="Path 238" class="cls-10" d="M705.09,420.62c0,2.64-.1,5.29-.25,7.92-.09,1.5-.21,3-.34,4.5s-.28,3-.45,4.46c-1.63,14.54-4.64,29-5,43.61v3.37c.07,13.71,2.39,27.23,5.45,40.68H581.62c-.23-2.49-.37-5-.39-7.47a71.29,71.29,0,0,1,.37-8c1.89-18.41,11.3-35.64,12.72-53.93.1-1.34.17-2.68.18-4v-.94a71.48,71.48,0,0,0-3-19.1c-1.72-5.76-3.72-11.44-6-17-3.46-8.69-7.17-17.32-9.65-26A67.55,67.55,0,0,1,573,371a44.45,44.45,0,0,1,.16-4.76c.08-.94.19-1.88.33-2.83a43.54,43.54,0,0,1,.88-4.41c2-7.88,6.27-15.27,10.36-22.59,4.56-8.16,8.92-16.24,9.69-24.82.06-.65.09-1.31.11-2h0a28,28,0,0,0-.4-5.49c-1.05-6.08-4.18-11.55-6.75-17.16-.26-.57-.52-1.14-.77-1.72-5.07-11.62-8-24-11.06-36.4-.88-3.54-1.78-7.08-2.73-10.59-4.48-16.36-10.86-32.89-23-44.7s-31.47-17.67-46.66-10.11C490,190,482.86,204.62,479.65,218.94s-3.47,29.27-7.64,43.35c-.46,1.55-1,3.1-1.51,4.64-1.86,5.27-4.18,10.5-6.62,15.7-7.81,16.59-16.9,32.91-16.71,49.62v.21a41.94,41.94,0,0,0,1.74,11.4c2,6.66,5.62,12.47,9.84,18,.83,1.09,1.69,2.16,2.56,3.23,4.25,5.22,8.86,10.27,12.88,15.65a63.64,63.64,0,0,1,7.63,12.73,46.51,46.51,0,0,1,.2,35.9,67.16,67.16,0,0,1-3.89,7.66c-2.57,4.44-5.4,8.76-7.63,13.38a47.85,47.85,0,0,0-2,4.73c-5,12.88-6.08,27.13-10.16,40.42a92,92,0,0,1-15.53,29.59H313.4s9.14-44.38,10.44-53.52c.65-4.57,7.66-20,19.16-34.63,1-1.34,2.14-2.68,3.27-4a112.06,112.06,0,0,0-24.14,26.34l-.89,1.4c2.08-6.39,4.37-12.7,6.72-18.92,5.82-15.38,12.3-31.07,23.9-42.73,6.55-6.58,14.52-11.65,20.76-18.52,10.68-11.77,15.3-28,15.42-44,0-2.14,0-4.27-.18-6.39-1.19-18-7.34-35.23-14-52-3.41-8.62-7-17.6-7.21-26.74a32,32,0,0,1,.29-5.27c2.76-19.66,22.76-31.45,34.77-47.45,17.86-23.73,19.16-59,42.59-77.22,18-14,43-13.14,65.73-11.62,21.14,1.42,40.22,4.17,61.2,7.11s42.3,8.45,59.11,21.34c10.87,8.39,19.35,19.39,26.88,30.85,10.08,15.34,18.89,32.28,20.1,50.59.12,1.74.17,3.48.14,5.21-.17,20.93-9.11,41.27-10.31,62.33-.08,1.42-.12,2.83-.1,4.26a.43.43,0,0,0,0,.16c.12,18.24,7.16,37.26,16.66,52.67A144.8,144.8,0,0,1,705.09,420.62Z"/></g></g></g></svg>