<svg xmlns="http://www.w3.org/2000/svg" viewBox="0 0 1004 671.78"><defs><style>.cls-1{fill:#fff;}.cls-2{fill:#304453;}.cls-3{fill:#2f2e41;}.cls-4{fill:#ffb8b8;}.cls-5{opacity:0.1;isolation:isolate;}.cls-6{fill:#6c63ff;}.cls-7{fill:#3f3d56;}.cls-8{fill:#ff6584;}.cls-9{fill:#f2f2f2;}</style></defs><g id="Layer_2" data-name="Layer 2"><g id="Layer_1-2" data-name="Layer 1"><g id="Group_11" data-name="Group 11"><rect id="Rectangle_44" data-name="Rectangle 44" class="cls-1" x="2.57" y="29.71" width="997" height="569"/><path id="Path_187" data-name="Path 187" class="cls-2" d="M884.23,313.63l-86.89,41.13,76.9-57.51a434.07,434.07,0,0,0-42-55.25L455.41,335.67l340.4-129.85a434.13,434.13,0,0,0-49.43-37.68L172.15,260.63A430.36,430.36,0,0,0,77.9,529.19H942.26A430.08,430.08,0,0,0,884.23,313.63Z"/><path id="Path_188" data-name="Path 188" class="cls-2" d="M699.38,141.44A432.49,432.49,0,0,0,178,253.52C313.7,223.78,550.06,172.29,699.38,141.44Z"/><path id="Path_189" data-name="Path 189" class="cls-3" d="M621,149.78c-14.79,43.8-37.47,83.7-83.7,83.7s-81.1-37.54-83.7-83.7c-3.33-59,36.41-83.94,83.7-83.7C593.2,66.37,638.59,97.81,621,149.78Z"/><rect id="Rectangle_45" data-name="Rectangle 45" class="cls-3" x="468.27" y="138.65" width="136.91" height="199.53"/><path id="Path_190" data-name="Path 190" class="cls-4" d="M516.3,253.21s4.38,62.77-5.84,73,90.5,19,89.05,7.3-20.44-87.59-14.6-103.64S516.3,253.21,516.3,253.21Z"/><path id="Path_191" data-name="Path 191" class="cls-5" d="M516.3,253.21s4.38,62.77-5.84,73,90.5,19,89.05,7.3-20.44-87.59-14.6-103.64S516.3,253.21,516.3,253.21Z"/><path id="Path_192" data-name="Path 192" class="cls-6" d="M420,413.79,367.53,591.14l-2.1,7.14H277.17c35.11-108.7,121.93-269,121.93-269l13.56-3.08Z"/><path id="Path_193" data-name="Path 193" class="cls-5" d="M420,413.79,367.53,591.14l-2.1,7.14H277.17c35.11-108.7,121.93-269,121.93-269l13.56-3.08Z"/><circle id="Ellipse_47" data-name="Ellipse 47" class="cls-4" cx="533.82" cy="209.42" r="65.69"/><path id="Path_194" data-name="Path 194" class="cls-7" d="M603.89,314.51s-23.36,21.9-49.63,17.52S517,295.7,517,295.7l-25.47,18.81s-7.3,52.55,26.27,58.39,81.75,7.3,92,0S603.89,314.51,603.89,314.51Z"/><path id="Path_195" data-name="Path 195" class="cls-6" d="M684.17,391.87,680,405.48l-59.14,192.8H366.34a61.46,61.46,0,0,0,1.19-7.14c3.29-27.45,1.35-96.68,1.35-101.45,0-5.85,24.8-150.35,30.66-160.58A9.55,9.55,0,0,1,403,326.2c6.8-3.91,21.86-8.29,38.08-12.16h0c9.07-2.2,18.54-4.23,27.12-5.95h0c8.42-1.69,16-3.08,21.5-4a88.49,88.49,0,0,1,9-1.25c1.35,0,2.33,1.6,3,4.06,2.22,8,1.36,25.12,1.36,25.12a44.39,44.39,0,0,0,6.56,6.15A83.2,83.2,0,0,0,528,349.09,108.41,108.41,0,0,0,545.41,355h0a126.47,126.47,0,0,0,19,3.31,58.76,58.76,0,0,0,15.73-.31h0c15.48-2.56,21.15-12.17,23.8-19.84.47-1.4.84-2.74,1.16-4,0,0,0,0,0-.06,1-3.74,1.38-6.38,2.41-6.33h0c2.66.25,36.22,29,58,47.9,10.35,9,18,15.72,18.51,16.13Z"/><path id="Path_196" data-name="Path 196" class="cls-5" d="M680,405.48l-59.14,192.8h-24a15.75,15.75,0,0,0,2.63-10.79c-.76-5.38,15.89-60.2,31.93-111.2,14.58-46.35,28.65-89.51,28.65-89.51l13.86,6.56S676.43,398,680,405.48Z"/><path id="Path_197" data-name="Path 197" class="cls-6" d="M722.13,580.17c-2.88.72-2.57,9.28-2.73,18.11H606.12A16.74,16.74,0,0,0,609.74,586c-.75-5.15,10.42-58.35,21.7-109.73,8.86-40.63,17.8-80.13,20.9-93.87l1.17-5.12,1.34.63,0,0,29.27,13.9,0,0S729.42,478,714.84,498.44s-14.61,20.44-8.78,30.67S728,578.72,722.13,580.17Z"/><circle id="Ellipse_48" data-name="Ellipse 48" class="cls-3" cx="537.33" cy="50.66" r="33.04"/><path id="Path_198" data-name="Path 198" class="cls-3" d="M497.68,33A33,33,0,0,1,527.42.17a33,33,0,1,0-3.3,65.91,32.84,32.84,0,0,0,3.3-.17A33,33,0,0,1,497.68,33Z"/><path id="Path_199" data-name="Path 199" class="cls-3" d="M513,126.66s-.69-3.84-27.67,6.28-43.15,84.79-29.66,128.63c5.43,17.67,1,30.41-6.2,39.33-27.09,33.45-16.43,83.69,23,100.9,1.11.48,2.25,1,3.41,1.44l16.86,10.11s-21.5-28.28-10.74-64.47a185.42,185.42,0,0,0,3.35-95c-1.24-5.3-2.64-10.76-4.23-16.34-13.49-47.22-6.93-41.76,40.29-89,0,0,27,20.23,50.59,30.35s43.85,20.24,27,54S541.69,297,568.67,340.83s30.36,27,27,43.85h0l-3.37,16.86,20.24-20.23-13.49,27s43.84,0,57.33-33.73l6.75,6.75s27-47.22-23.61-91.07c0,0-16.86-10.12,6.75-43.85s5.47-106.24-24.88-119.73S513,126.66,513,126.66Z"/><path id="Path_200" data-name="Path 200" class="cls-7" d="M533.82,339.07l-56.2,97.34h13.14v13.13l63.87-110.47Z"/><rect id="Rectangle_46" data-name="Rectangle 46" class="cls-8" x="904.04" y="615.92" width="26.46" height="23.52"/><rect id="Rectangle_47" data-name="Rectangle 47" class="cls-9" x="940.79" y="615.92" width="26.46" height="23.52"/><rect id="Rectangle_48" data-name="Rectangle 48" class="cls-9" x="977.54" y="615.92" width="26.46" height="23.52"/><path id="Path_201" data-name="Path 201" class="cls-3" d="M1002.53,599.75H0V29.4H1002.53ZM2.94,596.81H999.59V32.34H2.94Z"/><path id="Path_202" data-name="Path 202" class="cls-7" d="M152.31,547.39V561.2l-22.94-14a.8.8,0,0,0-1.1.28.77.77,0,0,0-.11.41v30.27a.8.8,0,0,0,.8.8.81.81,0,0,0,.41-.11l22.94-14v13.81a.4.4,0,0,0,.4.4h7.12a.4.4,0,0,0,.4-.4h0V547.39a.4.4,0,0,0-.4-.4h-7.12a.4.4,0,0,0-.4.4Z"/><path id="Path_203" data-name="Path 203" class="cls-7" d="M91.13,579.06H84.74a.82.82,0,0,1-.82-.8h0V547.79a.81.81,0,0,1,.81-.8h6.4a.81.81,0,0,1,.82.8h0v30.47a.82.82,0,0,1-.82.8Zm17.64,0h-6.4a.81.81,0,0,1-.81-.8h0V547.79a.8.8,0,0,1,.81-.8h6.4a.8.8,0,0,1,.81.8h0v30.47a.8.8,0,0,1-.81.8Z"/><path id="Path_204" data-name="Path 204" class="cls-6" d="M42.63,547.81v30.41a.8.8,0,0,0,.74.83.73.73,0,0,0,.43-.11l24.1-15.2a.86.86,0,0,0,.24-1.19.69.69,0,0,0-.24-.24l-24.1-15.2a.77.77,0,0,0-1.06.27.76.76,0,0,0-.11.44Z"/><rect id="Rectangle_49" data-name="Rectangle 49" class="cls-3" x="47.77" y="526.26" width="906.98" height="5.88"/><rect id="Rectangle_50" data-name="Rectangle 50" class="cls-6" x="47.77" y="526.26" width="158.02" height="5.88"/><rect id="Rectangle_51" data-name="Rectangle 51" class="cls-9" x="1.47" y="618.86" width="416.01" height="16.17"/><rect id="Rectangle_52" data-name="Rectangle 52" class="cls-9" x="1.47" y="655.61" width="91.14" height="16.17"/><path id="Path_205" data-name="Path 205" class="cls-8" d="M899.43,528.94l-3-2.29c-10.78-8.3-17.9-13.67-18.55-21.08a10.6,10.6,0,0,1,9.42-11.64h0l.31,0a11.57,11.57,0,0,1,9.09,3.34,11.51,11.51,0,0,1,8.36-4.86,10.58,10.58,0,0,1,11.58,9.49h0l0,.31c.65,7.41-5.42,13.94-14.61,24Z"/><path id="Path_206" data-name="Path 206" class="cls-8" d="M935.34,491.15l-1.66-3.41c-5.85-12.29-9.75-20.31-7-27.21a10.59,10.59,0,0,1,13.68-6.09h0l.28.11a11.51,11.51,0,0,1,6.58,7.1,11.52,11.52,0,0,1,9.67-.53,10.59,10.59,0,0,1,6,13.71c0,.1-.07.19-.11.29-2.79,6.9-11.17,10-23.91,14.73Z"/><path id="Path_207" data-name="Path 207" class="cls-8" d="M920.64,589.64,919,586.22c-5.85-12.29-9.75-20.31-7-27.2a10.6,10.6,0,0,1,13.68-6.1h0l.28.11a11.49,11.49,0,0,1,6.58,7.1,11.52,11.52,0,0,1,9.67-.53,10.59,10.59,0,0,1,6,13.71c0,.1-.07.19-.11.29-2.79,6.9-11.16,10-23.91,14.73Z"/></g></g></g></svg>